<?xml version="1.0" encoding="utf-8"?>
<!-- Generator: Adobe Illustrator 23.0.0, SVG Export Plug-In . SVG Version: 6.00 Build 0)  -->
<svg version="1.1" id="Layer_1" xmlns="http://www.w3.org/2000/svg" xmlns:xlink="http://www.w3.org/1999/xlink" x="0px" y="0px"
	 viewBox="0 0 528.6 423.4" style="enable-background:new 0 0 528.6 423.4;" xml:space="preserve">
<style type="text/css">
	.st0{fill:#001436;}
	.st1{fill:url(#SVGID_3_);}
	.st2{fill:url(#SVGID_4_);}
	.st3{fill:url(#SVGID_5_);}
	.st4{fill:url(#SVGID_6_);}
	.st5{fill:url(#SVGID_7_);}
	.st6{fill:url(#SVGID_8_);}
	.st7{fill:none;}
	.st8{fill:url(#SVGID_9_);}
	.st9{fill:#FFFFFF;}
	.st10{fill:url(#SVGID_10_);}
	.st11{fill:url(#SVGID_11_);}
	.st12{fill:url(#SVGID_12_);}
	.st13{fill:#9AA8B6;}
	.st14{fill:url(#SVGID_13_);}
	.st15{fill:url(#SVGID_14_);}
	.st16{fill:none;stroke:#FFFFFF;stroke-width:0.25;stroke-miterlimit:10;}
	.st17{fill:url(#SVGID_15_);}
	.st18{fill:url(#SVGID_16_);}
	.st19{fill:url(#SVGID_17_);}
	.st20{fill:url(#SVGID_18_);}
	.st21{fill:url(#SVGID_19_);}
	.st22{fill:#ABFA7A;}
	.st23{opacity:0.4;enable-background:new    ;}
	.st24{fill:url(#SVGID_20_);}
	.st25{fill:url(#SVGID_21_);}
	.st26{fill:url(#SVGID_22_);}
	.st27{fill:url(#SVGID_23_);}
	.st28{fill:url(#SVGID_24_);}
	.st29{fill:url(#SVGID_25_);}
	.st30{filter:url(#Adobe_OpacityMaskFilter);}
	.st31{opacity:0.75;mask:url(#SVGID_1_);}
	.st32{fill:#44CED8;}
	.st33{fill:#FBFFF3;}
	.st34{fill:url(#SVGID_26_);}
	.st35{fill:url(#SVGID_27_);}
	.st36{fill:url(#SVGID_28_);}
	.st37{fill:url(#SVGID_29_);}
	.st38{fill:url(#SVGID_30_);}
	.st39{fill:url(#SVGID_31_);}
	.st40{fill:url(#SVGID_32_);}
	.st41{fill:url(#SVGID_33_);}
	.st42{fill:url(#SVGID_34_);}
	.st43{fill:url(#SVGID_35_);}
	.st44{fill:url(#SVGID_36_);}
	.st45{fill:url(#SVGID_37_);}
	.st46{fill:url(#SVGID_38_);}
	.st47{fill:url(#SVGID_39_);}
	.st48{fill:url(#SVGID_40_);}
	.st49{fill:url(#SVGID_41_);}
	.st50{fill:url(#SVGID_42_);}
	.st51{fill:url(#SVGID_43_);}
	.st52{filter:url(#Adobe_OpacityMaskFilter_1_);}
	.st53{opacity:0.75;mask:url(#SVGID_2_);}
	.st54{fill:#120B5E;}
	.st55{fill:url(#SVGID_44_);}
	.st56{fill:url(#SVGID_45_);}
	.st57{fill:url(#SVGID_46_);}
	.st58{fill:url(#SVGID_47_);}
	.st59{fill:url(#SVGID_48_);}
	.st60{fill:url(#SVGID_49_);}
	.st61{fill:url(#SVGID_50_);}
	.st62{fill:url(#SVGID_51_);}
	.st63{fill:url(#SVGID_52_);}
	.st64{fill:#FCFAFA;}
	.st65{fill:url(#SVGID_53_);}
	.st66{fill:url(#SVGID_54_);}
	.st67{fill:url(#SVGID_55_);}
	.st68{fill:url(#SVGID_56_);}
	.st69{fill:url(#SVGID_57_);}
	.st70{fill:url(#SVGID_58_);}
	.st71{fill:url(#SVGID_59_);}
	.st72{fill:url(#SVGID_60_);}
	.st73{fill:url(#SVGID_61_);}
	.st74{fill:url(#SVGID_62_);}
	.st75{fill:url(#SVGID_63_);}
	.st76{fill:url(#SVGID_64_);}
	.st77{fill:url(#SVGID_65_);}
	.st78{fill:url(#SVGID_66_);}
	.st79{fill:url(#SVGID_67_);}
	.st80{fill:url(#SVGID_68_);}
	.st81{fill:#0D0032;}
	.st82{fill:url(#SVGID_69_);}
</style>
<g id="BACKGROUND">
</g>
<rect x="-721.8" y="105.8" class="st0" width="556.3" height="429"/>
<radialGradient id="SVGID_3_" cx="242.825" cy="68.6505" r="121.6423" gradientTransform="matrix(1 0 0 -1 0 410.7084)" gradientUnits="userSpaceOnUse">
	<stop  offset="0" style="stop-color:#A6DBE1"/>
	<stop  offset="0" style="stop-color:#9AD9E8"/>
	<stop  offset="2.000000e-02" style="stop-color:#2A73FF"/>
	<stop  offset="8.000000e-02" style="stop-color:#2953FF"/>
	<stop  offset="0.15" style="stop-color:#2731FF"/>
	<stop  offset="0.21" style="stop-color:#261DFF"/>
	<stop  offset="0.25" style="stop-color:#2615FF"/>
	<stop  offset="0.26" style="stop-color:#2314F0"/>
	<stop  offset="0.29" style="stop-color:#1C11C7"/>
	<stop  offset="0.33" style="stop-color:#150EA1"/>
	<stop  offset="0.37" style="stop-color:#0F0C81"/>
	<stop  offset="0.41" style="stop-color:#0B0A65"/>
	<stop  offset="0.46" style="stop-color:#07094F"/>
	<stop  offset="0.52" style="stop-color:#04073E"/>
	<stop  offset="0.59" style="stop-color:#020733"/>
	<stop  offset="0.69" style="stop-color:#00062C"/>
	<stop  offset="0.97" style="stop-color:#00062A"/>
</radialGradient>
<path class="st1" d="M391.7,298.1l-118.8,68.7c-21.1,12.2-47.1,12.2-68.2,0L94,303c-7.4-4.3-11.1-11.8-11.1-19.3l0,0V313v0v0l0,0
	c0,7.5,3.7,15,11.1,19.3l110.7,63.8c21.1,12.2,47.1,12.2,68.2,0l118.8-68.7c7.4-4.3,11.1-11.8,11.1-19.3l0,0l0,0c0,0,0,0,0,0v-29.4
	C402.8,286.3,399.1,293.8,391.7,298.1z"/>
<radialGradient id="SVGID_4_" cx="242.835" cy="129.4417" r="131.4493" gradientTransform="matrix(1 0 0 -1 0 410.7084)" gradientUnits="userSpaceOnUse">
	<stop  offset="0" style="stop-color:#2A73FF"/>
	<stop  offset="0.1366" style="stop-color:#235BDC"/>
	<stop  offset="0.3297" style="stop-color:#1A3EB2"/>
	<stop  offset="0.5174" style="stop-color:#142890"/>
	<stop  offset="0.6958" style="stop-color:#0F1778"/>
	<stop  offset="0.8609" style="stop-color:#0C0D6A"/>
	<stop  offset="1" style="stop-color:#0B0A65"/>
</radialGradient>
<path class="st2" d="M94,303l110.7,63.8c21.1,12.2,47.1,12.2,68.2,0l118.8-68.7c14.8-8.6,14.8-30,0-38.5l-110.5-63.8
	c-21.1-12.2-47.1-12.2-68.2,0L94,264.4C79.1,273,79.1,294.4,94,303z"/>
<linearGradient id="SVGID_5_" gradientUnits="userSpaceOnUse" x1="130.7537" y1="163.5411" x2="354.8662" y2="163.5411" gradientTransform="matrix(1 0 0 -1 0 410.7084)">
	<stop  offset="7.000000e-02" style="stop-color:#2A73FF"/>
	<stop  offset="0.21" style="stop-color:#2878FE"/>
	<stop  offset="0.38" style="stop-color:#2386FA"/>
	<stop  offset="0.56" style="stop-color:#1B9EF3"/>
	<stop  offset="0.74" style="stop-color:#0FBFEA"/>
	<stop  offset="0.93" style="stop-color:#00E9DF"/>
</linearGradient>
<path class="st3" d="M136.2,259.2l85.4,49.3c10.5,6.1,23.5,6.1,34,0l93.9-54.4c7.2-4.2,7.2-14.6,0-18.8l-85.3-49.3
	c-10.5-6.1-23.5-6.1-34.1,0l-93.9,54.5C128.9,244.6,128.9,255,136.2,259.2z"/>
<g>
	
		<linearGradient id="SVGID_6_" gradientUnits="userSpaceOnUse" x1="402.81" y1="131.8942" x2="402.81" y2="131.8942" gradientTransform="matrix(1 0 0 -1 0 410.7084)">
		<stop  offset="0" style="stop-color:#CACFED"/>
		<stop  offset="3.530000e-02" style="stop-color:#ADB5E3"/>
		<stop  offset="8.080000e-02" style="stop-color:#909AD9"/>
		<stop  offset="0.1292" style="stop-color:#7985D1"/>
		<stop  offset="0.181" style="stop-color:#6977CB"/>
		<stop  offset="0.2388" style="stop-color:#5F6EC8"/>
		<stop  offset="0.3146" style="stop-color:#5C6BC7"/>
		<stop  offset="0.4274" style="stop-color:#2F43B7"/>
		<stop  offset="0.7459" style="stop-color:#2B5AA9"/>
		<stop  offset="0.9988" style="stop-color:#10459E"/>
	</linearGradient>
	<path class="st4" d="M402.8,278.8L402.8,278.8L402.8,278.8z"/>
</g>
<linearGradient id="SVGID_7_" gradientUnits="userSpaceOnUse" x1="88.6425" y1="46.4342" x2="179.24" y2="46.4342" gradientTransform="matrix(1 0 0 -1 0 410.7084)">
	<stop  offset="0" style="stop-color:#A6DBE1"/>
	<stop  offset="0" style="stop-color:#9AD9E8"/>
	<stop  offset="2.000000e-02" style="stop-color:#2A73FF"/>
	<stop  offset="8.000000e-02" style="stop-color:#2953FF"/>
	<stop  offset="0.15" style="stop-color:#2731FF"/>
	<stop  offset="0.21" style="stop-color:#261DFF"/>
	<stop  offset="0.25" style="stop-color:#2615FF"/>
	<stop  offset="0.26" style="stop-color:#2314F0"/>
	<stop  offset="0.29" style="stop-color:#1C11C7"/>
	<stop  offset="0.33" style="stop-color:#150EA1"/>
	<stop  offset="0.37" style="stop-color:#0F0C81"/>
	<stop  offset="0.41" style="stop-color:#0B0A65"/>
	<stop  offset="0.46" style="stop-color:#07094F"/>
	<stop  offset="0.52" style="stop-color:#04073E"/>
	<stop  offset="0.59" style="stop-color:#020733"/>
	<stop  offset="0.69" style="stop-color:#00062C"/>
	<stop  offset="0.97" style="stop-color:#00062A"/>
</linearGradient>
<path class="st5" d="M119.9,337.5l59.3,34.3l-25.4,14.6c-10.5,6.1-23.5,6.1-34,0l-25.6-14.8c-7.4-4.3-7.4-15,0-19.2L119.9,337.5z"/>
<linearGradient id="SVGID_8_" gradientUnits="userSpaceOnUse" x1="88.65" y1="24.3042" x2="179.24" y2="24.3042" gradientTransform="matrix(1 0 0 -1 0 410.7084)">
	<stop  offset="7.000000e-02" style="stop-color:#2A73FF"/>
	<stop  offset="0.21" style="stop-color:#2878FE"/>
	<stop  offset="0.38" style="stop-color:#2386FA"/>
	<stop  offset="0.56" style="stop-color:#1B9EF3"/>
	<stop  offset="0.74" style="stop-color:#0FBFEA"/>
	<stop  offset="0.93" style="stop-color:#00E9DF"/>
</linearGradient>
<path class="st6" d="M153.9,386.4c-10.5,6.1-23.5,6.1-34,0l-25.6-14.8c-3.7-2.1-5.5-5.9-5.6-9.6l0,0v19.5c0,3.8,1.8,7.6,5.6,9.8
	l25.6,14.8c10.5,6.1,23.5,6.1,34,0l25.4-14.6v-19.8L153.9,386.4z"/>
<g>
	<polygon class="st7" points="354.9,244.6 354.9,244.6 354.9,244.6 	"/>
	<path class="st7" d="M130.8,249.5v0.3C130.8,249.7,130.8,249.6,130.8,249.5L130.8,249.5z"/>
	
		<linearGradient id="SVGID_9_" gradientUnits="userSpaceOnUse" x1="130.75" y1="117.3279" x2="354.87" y2="117.3279" gradientTransform="matrix(1 0 0 -1 0 410.7084)">
		<stop  offset="0" style="stop-color:#CACFED"/>
		<stop  offset="3.530000e-02" style="stop-color:#ADB5E3"/>
		<stop  offset="8.080000e-02" style="stop-color:#909AD9"/>
		<stop  offset="0.1292" style="stop-color:#7985D1"/>
		<stop  offset="0.181" style="stop-color:#6977CB"/>
		<stop  offset="0.2388" style="stop-color:#5F6EC8"/>
		<stop  offset="0.3146" style="stop-color:#5C6BC7"/>
		<stop  offset="0.4274" style="stop-color:#2F43B7"/>
		<stop  offset="0.7459" style="stop-color:#152F6C"/>
		<stop  offset="0.9988" style="stop-color:#10459E"/>
	</linearGradient>
	<path class="st8" d="M349.5,254l-93.9,54.4c-10.5,6.1-23.5,6.1-34.1,0l-85.3-49.3c-3.6-2.1-5.4-5.8-5.4-9.4v29h0
		c-0.1,3.7,1.8,7.5,5.4,9.6l85.4,49.3c10.5,6.1,23.5,6.1,34,0l93.9-54.4c3.6-2.1,5.4-5.7,5.4-9.3l0,0v-0.1c0-0.1,0-0.1,0-0.2l0-29.1
		C354.9,248.2,353.1,251.9,349.5,254z"/>
	<g>
		<path class="st9" d="M349.5,254L297,284.5l-26.2,15.3l-13.1,7.6c-4.3,2.7-9.1,4.7-14.1,5.4c-5,0.7-10.2,0.4-15.1-1.2
			c-2.4-0.8-4.8-1.8-7-3l-6.6-3.8l-26.3-15.2l-52.5-30.5l52.6,30.2l26.3,15.1c4.4,2.5,8.6,5.4,13.5,6.8c4.8,1.5,9.9,1.8,14.9,1.1
			c5-0.7,9.7-2.7,14-5.3l13.1-7.6l26.3-15.2L349.5,254z"/>
	</g>
</g>
<linearGradient id="SVGID_10_" gradientUnits="userSpaceOnUse" x1="297.8436" y1="166.1237" x2="391.2082" y2="4.4117" gradientTransform="matrix(1 0 0 -1 0 410.7084)">
	<stop  offset="7.000000e-02" style="stop-color:#2A73FF"/>
	<stop  offset="0.21" style="stop-color:#2878FE"/>
	<stop  offset="0.38" style="stop-color:#2386FA"/>
	<stop  offset="0.56" style="stop-color:#1B9EF3"/>
	<stop  offset="0.74" style="stop-color:#0FBFEA"/>
	<stop  offset="0.93" style="stop-color:#00E9DF"/>
</linearGradient>
<polygon class="st10" points="340.4,357.1 340.4,327.7 306.4,308.2 306.5,278.9 272.5,259.2 281,254.3 315.1,273.9 314.9,303.3 
	348.8,322.9 348.8,352.2 416.6,391.6 408.1,396.5 "/>
<linearGradient id="SVGID_11_" gradientUnits="userSpaceOnUse" x1="46.3887" y1="234.3401" x2="139.8053" y2="168.9485" gradientTransform="matrix(1 0 0 -1 0 410.7084)">
	<stop  offset="7.000000e-02" style="stop-color:#2A73FF"/>
	<stop  offset="0.21" style="stop-color:#2878FE"/>
	<stop  offset="0.38" style="stop-color:#2386FA"/>
	<stop  offset="0.56" style="stop-color:#1B9EF3"/>
	<stop  offset="0.74" style="stop-color:#0FBFEA"/>
	<stop  offset="0.93" style="stop-color:#00E9DF"/>
</linearGradient>
<polyline class="st11" points="37.5,181.3 137.1,239.8 145.8,234.8 54.4,181.3 "/>
<linearGradient id="SVGID_12_" gradientUnits="userSpaceOnUse" x1="346.0622" y1="177.4899" x2="366.1878" y2="212.3485" gradientTransform="matrix(1 0 0 -1 0 410.7084)">
	<stop  offset="7.000000e-02" style="stop-color:#2A73FF"/>
	<stop  offset="0.21" style="stop-color:#2878FE"/>
	<stop  offset="0.38" style="stop-color:#2386FA"/>
	<stop  offset="0.56" style="stop-color:#1B9EF3"/>
	<stop  offset="0.74" style="stop-color:#0FBFEA"/>
	<stop  offset="0.93" style="stop-color:#00E9DF"/>
</linearGradient>
<polygon class="st12" points="331.8,225 372,201.8 380.5,206.6 340.3,229.9 "/>
<polygon class="st13" points="50.8,225 50.8,117.3 118.7,78.1 118.7,185.8 "/>
<linearGradient id="SVGID_13_" gradientUnits="userSpaceOnUse" x1="67.8" y1="293.4192" x2="118.66" y2="293.4192" gradientTransform="matrix(1 0 0 -1 0 410.7084)">
	<stop  offset="0" style="stop-color:#2A73FF"/>
	<stop  offset="0.1366" style="stop-color:#235BDC"/>
	<stop  offset="0.3297" style="stop-color:#1A3EB2"/>
	<stop  offset="0.5174" style="stop-color:#142890"/>
	<stop  offset="0.6958" style="stop-color:#0F1778"/>
	<stop  offset="0.8609" style="stop-color:#0C0D6A"/>
	<stop  offset="1" style="stop-color:#0B0A65"/>
</linearGradient>
<polygon class="st14" points="67.8,156.4 67.8,48.8 118.7,78.1 118.7,185.8 "/>
<radialGradient id="SVGID_14_" cx="59.33" cy="327.6742" r="48.4448" gradientTransform="matrix(1 0 0 -1 0 410.7084)" gradientUnits="userSpaceOnUse">
	<stop  offset="0" style="stop-color:#2A73FF"/>
	<stop  offset="0.1366" style="stop-color:#235BDC"/>
	<stop  offset="0.3297" style="stop-color:#1A3EB2"/>
	<stop  offset="0.5174" style="stop-color:#142890"/>
	<stop  offset="0.6958" style="stop-color:#0F1778"/>
	<stop  offset="0.8609" style="stop-color:#0C0D6A"/>
	<stop  offset="1" style="stop-color:#0B0A65"/>
</radialGradient>
<polygon class="st15" points="118.7,78.1 50.8,117.3 0,87.9 67.8,48.8 "/>
<line class="st16" x1="50.8" y1="117.3" x2="50.8" y2="225"/>
<radialGradient id="SVGID_15_" cx="59.33" cy="136.8542" r="59.0208" gradientUnits="userSpaceOnUse">
	<stop  offset="0" style="stop-color:#2A73FF"/>
	<stop  offset="0.1366" style="stop-color:#235BDC"/>
	<stop  offset="0.3297" style="stop-color:#1A3EB2"/>
	<stop  offset="0.5174" style="stop-color:#142890"/>
	<stop  offset="0.6958" style="stop-color:#0F1778"/>
	<stop  offset="0.8609" style="stop-color:#0C0D6A"/>
	<stop  offset="1" style="stop-color:#0B0A65"/>
</radialGradient>
<polyline class="st17" points="118.7,78.1 50.8,117.3 50.8,166.2 0,195.6 0,87.9 50.8,117.3 "/>
<linearGradient id="SVGID_16_" gradientUnits="userSpaceOnUse" x1="0" y1="220.0342" x2="118.66" y2="220.0342" gradientTransform="matrix(1 0 0 -1 0 410.7084)">
	<stop  offset="0" style="stop-color:#2A73FF"/>
	<stop  offset="0.1366" style="stop-color:#235BDC"/>
	<stop  offset="0.3297" style="stop-color:#1A3EB2"/>
	<stop  offset="0.5174" style="stop-color:#142890"/>
	<stop  offset="0.6958" style="stop-color:#0F1778"/>
	<stop  offset="0.8609" style="stop-color:#0C0D6A"/>
	<stop  offset="1" style="stop-color:#0B0A65"/>
</linearGradient>
<polygon class="st18" points="118.7,185.8 50.8,224.9 0,195.6 67.8,156.4 "/>
<linearGradient id="SVGID_17_" gradientUnits="userSpaceOnUse" x1="59.33" y1="293.4142" x2="110.18" y2="293.4142" gradientTransform="matrix(1 0 0 -1 0 410.7084)">
	<stop  offset="0" style="stop-color:#A6DBE1"/>
	<stop  offset="0" style="stop-color:#9AD9E8"/>
	<stop  offset="2.000000e-02" style="stop-color:#2A73FF"/>
	<stop  offset="8.000000e-02" style="stop-color:#2953FF"/>
	<stop  offset="0.15" style="stop-color:#2731FF"/>
	<stop  offset="0.21" style="stop-color:#261DFF"/>
	<stop  offset="0.25" style="stop-color:#2615FF"/>
	<stop  offset="0.26" style="stop-color:#2314F0"/>
	<stop  offset="0.29" style="stop-color:#1C11C7"/>
	<stop  offset="0.33" style="stop-color:#150EA1"/>
	<stop  offset="0.37" style="stop-color:#0F0C81"/>
	<stop  offset="0.41" style="stop-color:#0B0A65"/>
	<stop  offset="0.46" style="stop-color:#07094F"/>
	<stop  offset="0.52" style="stop-color:#04073E"/>
	<stop  offset="0.59" style="stop-color:#020733"/>
	<stop  offset="0.69" style="stop-color:#00062C"/>
	<stop  offset="0.97" style="stop-color:#00062A"/>
</linearGradient>
<polygon class="st19" points="59.3,122.2 110.2,92.8 110.2,112.4 59.3,141.8 "/>
<linearGradient id="SVGID_18_" gradientUnits="userSpaceOnUse" x1="59.33" y1="264.0542" x2="110.18" y2="264.0542" gradientTransform="matrix(1 0 0 -1 0 410.7084)">
	<stop  offset="0" style="stop-color:#A6DBE1"/>
	<stop  offset="0" style="stop-color:#9AD9E8"/>
	<stop  offset="2.000000e-02" style="stop-color:#2A73FF"/>
	<stop  offset="8.000000e-02" style="stop-color:#2953FF"/>
	<stop  offset="0.15" style="stop-color:#2731FF"/>
	<stop  offset="0.21" style="stop-color:#261DFF"/>
	<stop  offset="0.25" style="stop-color:#2615FF"/>
	<stop  offset="0.26" style="stop-color:#2314F0"/>
	<stop  offset="0.29" style="stop-color:#1C11C7"/>
	<stop  offset="0.33" style="stop-color:#150EA1"/>
	<stop  offset="0.37" style="stop-color:#0F0C81"/>
	<stop  offset="0.41" style="stop-color:#0B0A65"/>
	<stop  offset="0.46" style="stop-color:#07094F"/>
	<stop  offset="0.52" style="stop-color:#04073E"/>
	<stop  offset="0.59" style="stop-color:#020733"/>
	<stop  offset="0.69" style="stop-color:#00062C"/>
	<stop  offset="0.97" style="stop-color:#00062A"/>
</linearGradient>
<polygon class="st20" points="59.3,151.6 110.2,122.2 110.2,141.8 59.3,171.1 "/>
<linearGradient id="SVGID_19_" gradientUnits="userSpaceOnUse" x1="59.33" y1="234.6892" x2="110.18" y2="234.6892" gradientTransform="matrix(1 0 0 -1 0 410.7084)">
	<stop  offset="0" style="stop-color:#A6DBE1"/>
	<stop  offset="0" style="stop-color:#9AD9E8"/>
	<stop  offset="2.000000e-02" style="stop-color:#2A73FF"/>
	<stop  offset="8.000000e-02" style="stop-color:#2953FF"/>
	<stop  offset="0.15" style="stop-color:#2731FF"/>
	<stop  offset="0.21" style="stop-color:#261DFF"/>
	<stop  offset="0.25" style="stop-color:#2615FF"/>
	<stop  offset="0.26" style="stop-color:#2314F0"/>
	<stop  offset="0.29" style="stop-color:#1C11C7"/>
	<stop  offset="0.33" style="stop-color:#150EA1"/>
	<stop  offset="0.37" style="stop-color:#0F0C81"/>
	<stop  offset="0.41" style="stop-color:#0B0A65"/>
	<stop  offset="0.46" style="stop-color:#07094F"/>
	<stop  offset="0.52" style="stop-color:#04073E"/>
	<stop  offset="0.59" style="stop-color:#020733"/>
	<stop  offset="0.69" style="stop-color:#00062C"/>
	<stop  offset="0.97" style="stop-color:#00062A"/>
</linearGradient>
<polygon class="st21" points="59.3,180.9 110.2,151.6 110.2,171.1 59.3,200.5 "/>
<path class="st22" d="M62.6,127.1c-0.5,0-1-0.8-1-1.7c0-1,0.4-1.7,1-1.7s1,0.8,1,1.7C63.6,126.3,63.2,127.1,62.6,127.1z"/>
<path class="st22" d="M62.6,156.4c-0.5,0-1-0.8-1-1.7s0.4-1.7,1-1.7s1,0.8,1,1.7S63.2,156.4,62.6,156.4z"/>
<path class="st22" d="M62.6,185.8c-0.5,0-1-0.8-1-1.7c0-1,0.4-1.7,1-1.7s1,0.8,1,1.7S63.2,185.8,62.6,185.8z"/>
<polygon class="st23" points="179.2,244.6 247.1,283.7 307,249.8 238.6,210.3 "/>
<linearGradient id="SVGID_20_" gradientUnits="userSpaceOnUse" x1="179.23" y1="144.7392" x2="306.95" y2="144.7392" gradientTransform="matrix(1 0 0 -1 0 410.7084)">
	<stop  offset="0" style="stop-color:#A6DBE1"/>
	<stop  offset="0" style="stop-color:#9AD9E8"/>
	<stop  offset="2.000000e-02" style="stop-color:#2A73FF"/>
	<stop  offset="8.000000e-02" style="stop-color:#2953FF"/>
	<stop  offset="0.15" style="stop-color:#2731FF"/>
	<stop  offset="0.21" style="stop-color:#261DFF"/>
	<stop  offset="0.25" style="stop-color:#2615FF"/>
	<stop  offset="0.26" style="stop-color:#2314F0"/>
	<stop  offset="0.29" style="stop-color:#1C11C7"/>
	<stop  offset="0.33" style="stop-color:#150EA1"/>
	<stop  offset="0.37" style="stop-color:#0F0C81"/>
	<stop  offset="0.41" style="stop-color:#0B0A65"/>
	<stop  offset="0.46" style="stop-color:#07094F"/>
	<stop  offset="0.52" style="stop-color:#04073E"/>
	<stop  offset="0.59" style="stop-color:#020733"/>
	<stop  offset="0.69" style="stop-color:#00062C"/>
	<stop  offset="0.97" style="stop-color:#00062A"/>
</linearGradient>
<polygon class="st24" points="179.2,248.2 247.1,287.4 307,253.4 307,249.8 247.1,283.7 179.2,244.6 "/>
<linearGradient id="SVGID_21_" gradientUnits="userSpaceOnUse" x1="238.57" y1="207.5892" x2="331.8" y2="207.5892" gradientTransform="matrix(1 0 0 -1 0 410.7084)">
	<stop  offset="0.3146" style="stop-color:#85889A"/>
	<stop  offset="0.4274" style="stop-color:#5B628A"/>
	<stop  offset="0.7459" style="stop-color:#2B436B"/>
	<stop  offset="0.9988" style="stop-color:#394471"/>
</linearGradient>
<polygon class="st25" points="307,249.8 331.8,195.6 264,156.5 238.6,210.3 "/>
<linearGradient id="SVGID_22_" gradientUnits="userSpaceOnUse" x1="240.82" y1="207.5942" x2="329.57" y2="207.5942" gradientTransform="matrix(1 0 0 -1 0 410.7084)">
	<stop  offset="0" style="stop-color:#2A73FF"/>
	<stop  offset="0.1366" style="stop-color:#235BDC"/>
	<stop  offset="0.3297" style="stop-color:#1A3EB2"/>
	<stop  offset="0.5174" style="stop-color:#142890"/>
	<stop  offset="0.6958" style="stop-color:#0F1778"/>
	<stop  offset="0.8609" style="stop-color:#0C0D6A"/>
	<stop  offset="1" style="stop-color:#0B0A65"/>
</linearGradient>
<polygon class="st26" points="240.8,209.6 264.8,158.9 329.6,196.3 306.2,247.3 "/>
<linearGradient id="SVGID_23_" gradientUnits="userSpaceOnUse" x1="187.86" y1="195.5142" x2="221.62" y2="195.5142" gradientTransform="matrix(1 0 0 -1 0 410.7084)">
	<stop  offset="0" style="stop-color:#A6DBE1"/>
	<stop  offset="0" style="stop-color:#9AD9E8"/>
	<stop  offset="2.000000e-02" style="stop-color:#2A73FF"/>
	<stop  offset="8.000000e-02" style="stop-color:#2953FF"/>
	<stop  offset="0.15" style="stop-color:#2731FF"/>
	<stop  offset="0.21" style="stop-color:#261DFF"/>
	<stop  offset="0.25" style="stop-color:#2615FF"/>
	<stop  offset="0.26" style="stop-color:#2314F0"/>
	<stop  offset="0.29" style="stop-color:#1C11C7"/>
	<stop  offset="0.33" style="stop-color:#150EA1"/>
	<stop  offset="0.37" style="stop-color:#0F0C81"/>
	<stop  offset="0.41" style="stop-color:#0B0A65"/>
	<stop  offset="0.46" style="stop-color:#07094F"/>
	<stop  offset="0.52" style="stop-color:#04073E"/>
	<stop  offset="0.59" style="stop-color:#020733"/>
	<stop  offset="0.69" style="stop-color:#00062C"/>
	<stop  offset="0.97" style="stop-color:#00062A"/>
</linearGradient>
<polygon class="st27" points="213.1,225 187.9,210.4 196.4,205.4 221.6,220.1 "/>
<g>
	
		<image style="overflow:visible;opacity:0.75;enable-background:new    ;" width="742" height="879" xlink:href="9DE182F2.png"  transform="matrix(0.2384 0 0 0.2384 148.6495 0)">
	</image>
	<g>
		
			<linearGradient id="SVGID_24_" gradientUnits="userSpaceOnUse" x1="163.71" y1="305.9092" x2="310.53" y2="305.9092" gradientTransform="matrix(1 0 0 -1 0 410.7084)">
			<stop  offset="7.000000e-02" style="stop-color:#2A73FF"/>
			<stop  offset="0.21" style="stop-color:#2878FE"/>
			<stop  offset="0.38" style="stop-color:#2386FA"/>
			<stop  offset="0.56" style="stop-color:#1B9EF3"/>
			<stop  offset="0.74" style="stop-color:#0FBFEA"/>
			<stop  offset="0.93" style="stop-color:#00E9DF"/>
		</linearGradient>
		<path class="st28" d="M310.5,88.1c0-40.5-32.9-73.4-73.4-73.4s-73.4,32.9-73.4,73.4c0,1.5,0.1,3,0.1,4.5h0
			c0,40.3,39.3,63.6,39.3,83.2h0c0,10.5,15.2,19,33.9,19s33.9-8.5,33.9-19c0-19.6,39.4-42.8,39.4-83.2l0,0
			C310.5,91.2,310.5,89.7,310.5,88.1z"/>
	</g>
</g>
<g>
	<g>
		
			<linearGradient id="SVGID_25_" gradientUnits="userSpaceOnUse" x1="237.11" y1="223.6242" x2="237.11" y2="391.1742" gradientTransform="matrix(1 0 0 -1 0 410.7084)">
			<stop  offset="7.000000e-02" style="stop-color:#2A73FF"/>
			<stop  offset="0.21" style="stop-color:#2878FE"/>
			<stop  offset="0.38" style="stop-color:#2386FA"/>
			<stop  offset="0.56" style="stop-color:#1B9EF3"/>
			<stop  offset="0.74" style="stop-color:#0FBFEA"/>
			<stop  offset="0.93" style="stop-color:#00E9DF"/>
		</linearGradient>
		<path class="st29" d="M237.1,187.1c-15.8,0-27.6-6.7-27.6-12.7v-6.3h-0.9c-2.2-7.9-8.2-15.7-14.9-24.4c-10-13-21.1-27.6-23.3-46.2
			h0l-0.4-6.7c-0.1-1.6-0.1-2.9-0.1-4.2c0-37,30.1-67.1,67.1-67.1s67.1,30.1,67.1,67.1c0,1.2,0,2.6-0.1,4.1l0,0.2v0.2
			c0,21.6-12.5,38-23.6,52.5c-8.5,11-15.8,20.6-15.8,30.7C264.7,180.4,252.9,187.1,237.1,187.1z"/>
	</g>
	<defs>
		<filter id="Adobe_OpacityMaskFilter" filterUnits="userSpaceOnUse" x="170" y="19.5" width="134.2" height="167.5">
			<feColorMatrix  type="matrix" values="1 0 0 0 0  0 1 0 0 0  0 0 1 0 0  0 0 0 1 0"/>
		</filter>
	</defs>
	<mask maskUnits="userSpaceOnUse" x="170" y="19.5" width="134.2" height="167.5" id="SVGID_1_">
		<g class="st30">
			
				<image style="overflow:visible;enable-background:new    ;" width="579" height="717" xlink:href="9DE182F6.jpg"  transform="matrix(0.2392 0 0 0.2392 167.9695 17.5864)">
			</image>
		</g>
	</mask>
	<g class="st31">
		<path class="st32" d="M237.1,187.1c-15.8,0-27.6-6.7-27.6-12.7v-6.3h-0.9c-2.2-7.9-8.2-15.7-14.9-24.4c-10-13-21.1-27.6-23.3-46.2
			h0l-0.4-6.7c-0.1-1.6-0.1-2.9-0.1-4.2c0-37,30.1-67.1,67.1-67.1s67.1,30.1,67.1,67.1c0,1.2,0,2.6-0.1,4.1l0,0.2v0.2
			c0,21.6-12.5,38-23.6,52.5c-8.5,11-15.8,20.6-15.8,30.7C264.7,180.4,252.9,187.1,237.1,187.1z"/>
	</g>
</g>
<g>
	<path class="st33" d="M427.3,327.7L427.3,327.7C427.3,327.8,427.3,327.7,427.3,327.7L427.3,327.7z"/>
	<path class="st33" d="M440.6,336.5l3.4-2.1l-8.4-4.9c-1.5,0.1-2.9,0.1-4.1,0c-0.8-0.1-1.5-0.3-2.2-0.5l7.5,4.5L440.6,336.5z"/>
</g>
<linearGradient id="SVGID_26_" gradientUnits="userSpaceOnUse" x1="434.3485" y1="81.8907" x2="447.0715" y2="103.9277" gradientTransform="matrix(1 0 0 -1 0 410.7084)">
	<stop  offset="0" style="stop-color:#2F43B7"/>
	<stop  offset="0.5581" style="stop-color:#2B5AA9"/>
	<stop  offset="0.9988" style="stop-color:#10459E"/>
</linearGradient>
<polygon class="st34" points="437.4,301.2 445.8,306.1 444,334.4 435.6,329.5 "/>
<linearGradient id="SVGID_27_" gradientUnits="userSpaceOnUse" x1="434.91" y1="-7.6658" x2="434.91" y2="13.5442" gradientTransform="matrix(1 0 0 -1 0 410.7084)">
	<stop  offset="0" style="stop-color:#2F43B7"/>
	<stop  offset="0.5581" style="stop-color:#2B5AA9"/>
	<stop  offset="0.9988" style="stop-color:#10459E"/>
</linearGradient>
<polygon class="st35" points="438.6,418.4 439.6,402.1 431.3,397.2 430.2,413.5 "/>
<linearGradient id="SVGID_28_" gradientUnits="userSpaceOnUse" x1="417.1284" y1="8.1506" x2="430.0383" y2="30.5112" gradientTransform="matrix(1 0 0 -1 0 410.7084)">
	<stop  offset="0" style="stop-color:#5C6BC7"/>
	<stop  offset="0.2072" style="stop-color:#2B5AA9"/>
	<stop  offset="0.2466" style="stop-color:#315FAC"/>
	<stop  offset="0.301" style="stop-color:#436CB3"/>
	<stop  offset="0.3641" style="stop-color:#6081C0"/>
	<stop  offset="0.4337" style="stop-color:#899FD1"/>
	<stop  offset="0.5079" style="stop-color:#BDC5E7"/>
	<stop  offset="0.5255" style="stop-color:#CACFED"/>
	<stop  offset="0.7041" style="stop-color:#2F43B7"/>
	<stop  offset="0.7965" style="stop-color:#2B5AA9"/>
	<stop  offset="0.8685" style="stop-color:#2958A8"/>
	<stop  offset="0.905" style="stop-color:#2152A5"/>
	<stop  offset="0.9335" style="stop-color:#1448A0"/>
	<stop  offset="0.9394" style="stop-color:#10459E"/>
</linearGradient>
<path class="st36" d="M432.3,381.5c-2.2,0.8-4.1,1.1-5.7,1s-3-0.3-4.3-0.5c-1.3-0.3-2.4-0.5-3.4-0.7c-1-0.2-1.9,0-2.8,0.5
	c-0.8,0.4-1.4,1.1-2.1,1.9s-1.2,1.7-1.6,2.7l-4.5,10.9l8.4,4.9l4.5-10.9c0.4-1,0.9-1.9,1.6-2.7c0.6-0.8,1.3-1.5,2.1-1.9
	c0.9-0.5,1.8-0.7,2.8-0.5c1,0.2,2.1,0.4,3.4,0.7c1.3,0.3,2.7,0.5,4.3,0.5s3.5-0.3,5.7-1L432.3,381.5z"/>
<linearGradient id="SVGID_29_" gradientUnits="userSpaceOnUse" x1="429.8721" y1="30.5553" x2="445.1879" y2="57.0831" gradientTransform="matrix(1 0 0 -1 0 410.7084)">
	<stop  offset="0" style="stop-color:#2F43B7"/>
	<stop  offset="0.5581" style="stop-color:#2B5AA9"/>
	<stop  offset="0.9988" style="stop-color:#10459E"/>
</linearGradient>
<polygon class="st37" points="434.4,347.4 442.8,352.3 440.6,386.4 432.3,381.5 "/>
<linearGradient id="SVGID_30_" gradientUnits="userSpaceOnUse" x1="413.6538" y1="65.7683" x2="445.6709" y2="121.2236" gradientTransform="matrix(1 0 0 -1 0 410.7084)">
	<stop  offset="0" style="stop-color:#2D4AB0"/>
	<stop  offset="5.513994e-03" style="stop-color:#2449AB"/>
	<stop  offset="1.750000e-02" style="stop-color:#1946A3"/>
	<stop  offset="3.430000e-02" style="stop-color:#12459F"/>
	<stop  offset="8.100000e-02" style="stop-color:#10459E"/>
	<stop  offset="8.670000e-02" style="stop-color:#1448A0"/>
	<stop  offset="0.1142" style="stop-color:#2152A5"/>
	<stop  offset="0.1495" style="stop-color:#2958A8"/>
	<stop  offset="0.2191" style="stop-color:#2B5AA9"/>
	<stop  offset="0.4138" style="stop-color:#2F43B7"/>
	<stop  offset="0.6521" style="stop-color:#CACFED"/>
	<stop  offset="1" style="stop-color:#5C6BC7"/>
</linearGradient>
<path class="st38" d="M427,295c-3.3,3.7-6.2,7.7-8.5,11.8c-2.3,4.1-4,8.3-5.2,12.5c-1.2,4.2-1.8,8.2-1.8,11.9c0,5,0.7,8.8,2,11.3
	s3.1,4.3,5.3,5.2c0.3,0.1,0.7,0.4,1.1,0.7l6.6,3.9v0c-1.9-1-3.4-2.6-4.6-4.9c-1.3-2.5-2-6.3-2-11.3c0-3.7,0.6-7.7,1.8-11.9
	s2.9-8.4,5.2-12.5c2.3-4.1,5.1-8,8.5-11.8c3.3-3.7,7.2-7,11.5-9.7l-8.4-4.9C434.1,288,430.3,291.3,427,295z"/>
<linearGradient id="SVGID_31_" gradientUnits="userSpaceOnUse" x1="440.6075" y1="124.6451" x2="451.2165" y2="142.9816" gradientTransform="matrix(1 0 0 -1 0 410.7084)">
	<stop  offset="1.186540e-03" style="stop-color:#10459E"/>
	<stop  offset="0.187" style="stop-color:#2B5AA9"/>
	<stop  offset="0.4138" style="stop-color:#2F43B7"/>
	<stop  offset="0.6521" style="stop-color:#CACFED"/>
	<stop  offset="1" style="stop-color:#5C6BC7"/>
</linearGradient>
<path class="st39" d="M440.3,271.8c-0.7,1.3-1.1,2.6-1.2,3.8l-0.6,9.6l8.4,4.9l0.6-9.6c0.1-1.2,0.5-2.5,1.2-3.8s1.6-2.3,2.8-3
	l5.4-3.1l-8.4-4.9l-5.4,3.1C441.9,269.5,441,270.5,440.3,271.8z"/>
<g>
	
		<linearGradient id="SVGID_32_" gradientUnits="userSpaceOnUse" x1="457.56" y1="75.0541" x2="461.9285" y2="82.6206" gradientTransform="matrix(1 0 0 -1 0 410.7084)">
		<stop  offset="0" style="stop-color:#5C6BC7"/>
		<stop  offset="1" style="stop-color:#CACFED"/>
	</linearGradient>
	<path class="st40" d="M469.1,332.4l-6.8-4.1c-0.6-0.4-1.3-0.8-2.1-1c-2.1-0.7-4.5-1-7.1-0.7l-0.4,6.2c2.8-0.6,5.6-1,8.4-1.3
		s5.3-0.1,7.5,0.7C468.8,332.3,468.9,332.4,469.1,332.4z"/>
	<path class="st33" d="M471.8,334L471.8,334L471.8,334C471.8,334,471.8,334,471.8,334z"/>
</g>
<g>
	<path class="st33" d="M441.2,376.6L441.2,376.6L441.2,376.6C441.2,376.6,441.2,376.6,441.2,376.6z"/>
	
		<linearGradient id="SVGID_33_" gradientUnits="userSpaceOnUse" x1="445.5733" y1="31.5532" x2="461.153" y2="58.5381" gradientTransform="matrix(1 0 0 -1 0 410.7084)">
		<stop  offset="0" style="stop-color:#2F43B7"/>
		<stop  offset="0.5581" style="stop-color:#2B5AA9"/>
		<stop  offset="0.9988" style="stop-color:#10459E"/>
	</linearGradient>
	<path class="st41" d="M459,370.8c2.1-4,3.2-8.4,3.2-12.9c0-1.9-0.3-3.3-0.8-4.4c-0.4-0.9-1-1.6-1.7-2.1l-0.8-0.5
		c-0.9-0.4-1.9-0.7-3.1-0.7c-0.7,0-1.4,0-2.2,0.1c0.2,0.8,0.3,1.7,0.3,2.7c0,4.5-1.1,8.9-3.2,12.9c0,0,0,0.1-0.1,0.1l-1,15.5
		C453.8,378.4,456.9,374.8,459,370.8z"/>
</g>
<g>
	
		<image style="overflow:visible;opacity:0.75;enable-background:new    ;" width="379" height="746" xlink:href="9DE182F6.png"  transform="matrix(0.2375 0 0 0.2375 401.1295 255.954)">
	</image>
	<g>
		<g>
			
				<linearGradient id="SVGID_34_" gradientUnits="userSpaceOnUse" x1="416.3501" y1="66.2143" x2="476.0901" y2="66.2143" gradientTransform="matrix(1 0 0 -1 0 410.7084)">
				<stop  offset="0" style="stop-color:#2A73FF"/>
				<stop  offset="0.1366" style="stop-color:#235BDC"/>
				<stop  offset="0.3297" style="stop-color:#1A3EB2"/>
				<stop  offset="0.6682" style="stop-color:#142890"/>
				<stop  offset="0.8119" style="stop-color:#14268E"/>
				<stop  offset="0.8878" style="stop-color:#122186"/>
				<stop  offset="0.9477" style="stop-color:#0F1878"/>
				<stop  offset="0.9991" style="stop-color:#0B0A65"/>
				<stop  offset="1" style="stop-color:#0B0A65"/>
			</linearGradient>
			<path class="st42" d="M452.7,332.9c2.8-0.6,5.6-1,8.4-1.3s5.3-0.1,7.5,0.7c2.2,0.8,4,2.3,5.4,4.5c1.4,2.3,2.1,5.7,2.1,10.3
				c0,4.5-0.6,9.2-1.8,13.9c-1.2,4.7-3,9.3-5.4,13.7s-5.2,8.6-8.7,12.5s-7.3,7.3-11.7,10.2l-0.7,11.2c0,1.1-0.4,2.4-1.1,3.8
				c-0.7,1.4-1.6,2.4-2.7,3l-5.4,3.1l1.1-16.3c-4.6,1.9-8.9,2.8-13,2.8c-4,0-7.5-0.9-10.3-2.8l4.5-10.9c0.4-1,0.9-1.9,1.6-2.7
				c0.6-0.8,1.3-1.5,2.1-1.9c0.9-0.5,1.8-0.7,2.8-0.5c1,0.2,2.1,0.4,3.4,0.7c1.3,0.3,2.7,0.5,4.3,0.5s3.5-0.3,5.7-1l2.2-34.1
				c-2.8,0.6-5.5,1.1-8.3,1.4c-2.7,0.3-5.2-0.1-7.4-1s-3.9-2.6-5.3-5.2c-1.3-2.5-2-6.3-2-11.3c0-3.7,0.6-7.7,1.8-11.9
				s2.9-8.4,5.2-12.5c2.3-4.1,5.1-8,8.5-11.8c3.3-3.7,7.2-7,11.5-9.7l0.6-9.6c0.1-1.2,0.5-2.5,1.2-3.8s1.6-2.3,2.8-3l5.4-3.1
				l-0.9,14.9c4.2-1.6,7.8-2.2,10.8-1.8c3,0.4,5.6,1.3,7.8,2.6l-3.5,8.7c-0.5,1.3-1,2.3-1.6,3.1c-0.5,0.8-1.2,1.4-2,1.9
				c-0.6,0.3-1.3,0.5-2.1,0.5s-1.8,0-2.8-0.1c-1-0.1-2.2-0.1-3.5,0s-2.7,0.3-4.2,0.8L452.7,332.9z M445.8,306.1
				c-2.2,1.6-4.1,3.3-5.6,5c-1.5,1.7-2.8,3.4-3.8,5.1c-1,1.7-1.7,3.5-2.1,5.2c-0.5,1.7-0.7,3.4-0.7,5c0,1.9,0.3,3.3,0.8,4.4
				c0.5,1.1,1.3,1.9,2.2,2.5c0.9,0.6,2,0.9,3.3,1c1.3,0.1,2.6,0.1,4.1,0L445.8,306.1z M449.6,381.5c4.2-3.1,7.3-6.7,9.5-10.7
				s3.2-8.4,3.2-12.9c0-1.9-0.3-3.3-0.8-4.4c-0.5-1.1-1.3-1.9-2.2-2.4s-2.1-0.8-3.4-0.8c-1.3,0-2.7,0-4.2,0.3L449.6,381.5z"/>
		</g>
	</g>
</g>
<g>
	<g>
		<g>
			<g>
				
					<linearGradient id="SVGID_35_" gradientUnits="userSpaceOnUse" x1="16.5598" y1="595.7453" x2="19.2465" y2="595.7453" gradientTransform="matrix(1 0 0 1 0 -577.89)">
					<stop  offset="7.000000e-02" style="stop-color:#2A73FF"/>
					<stop  offset="0.21" style="stop-color:#2878FE"/>
					<stop  offset="0.38" style="stop-color:#2386FA"/>
					<stop  offset="0.56" style="stop-color:#1B9EF3"/>
					<stop  offset="0.74" style="stop-color:#0FBFEA"/>
					<stop  offset="0.93" style="stop-color:#00E9DF"/>
				</linearGradient>
				<path class="st43" d="M17.2,19.4c-0.1,0-0.3,0-0.4-0.1c-0.3-0.2-0.3-0.6-0.1-0.8c0.5-0.6,1-1.3,1.5-1.9c0.2-0.3,0.6-0.3,0.8-0.1
					s0.3,0.6,0.1,0.8c-0.5,0.6-1,1.2-1.5,1.8C17.5,19.3,17.3,19.4,17.2,19.4z"/>
				
					<linearGradient id="SVGID_36_" gradientUnits="userSpaceOnUse" x1="23.978" y1="594.7941" x2="82.6887" y2="594.7941" gradientTransform="matrix(1 0 0 1 0 -577.89)">
					<stop  offset="7.000000e-02" style="stop-color:#2A73FF"/>
					<stop  offset="0.21" style="stop-color:#2878FE"/>
					<stop  offset="0.38" style="stop-color:#2386FA"/>
					<stop  offset="0.56" style="stop-color:#1B9EF3"/>
					<stop  offset="0.74" style="stop-color:#0FBFEA"/>
					<stop  offset="0.93" style="stop-color:#00E9DF"/>
				</linearGradient>
				<path class="st44" d="M82.1,30.3c-0.3,0-0.5-0.2-0.6-0.4c-0.5-1.6-1.1-3.1-1.8-4.6c-0.2-0.3,0-0.7,0.3-0.8
					c0.3-0.2,0.7,0,0.8,0.3c0.7,1.5,1.4,3.1,1.9,4.7c0.1,0.3-0.1,0.6-0.4,0.8C82.2,30.3,82.2,30.3,82.1,30.3z M75.9,18.8
					c-0.2,0-0.3-0.1-0.5-0.2c-1-1.3-2.1-2.5-3.3-3.7c-0.2-0.2-0.2-0.6,0-0.8c0.2-0.2,0.6-0.2,0.8,0c1.2,1.2,2.3,2.4,3.4,3.8
					c0.2,0.3,0.2,0.6-0.1,0.8C76.2,18.7,76.1,18.8,75.9,18.8z M24.6,12c-0.2,0-0.4-0.1-0.5-0.2c-0.2-0.3-0.2-0.6,0.1-0.8
					c0.7-0.5,1.5-1,2.2-1.5c0.7-0.4,1.3-0.8,2-1.2c0.3-0.2,0.7,0,0.8,0.2c0.2,0.3,0,0.7-0.2,0.8c-0.7,0.4-1.3,0.8-2,1.2
					c-0.7,0.5-1.5,1-2.2,1.5C24.8,12,24.7,12,24.6,12z M66.2,10.1c-0.1,0-0.2,0-0.3-0.1c-1.4-0.8-2.8-1.6-4.3-2.3
					c-0.3-0.1-0.4-0.5-0.3-0.8s0.5-0.4,0.8-0.3c1.5,0.7,3,1.5,4.5,2.3c0.3,0.2,0.4,0.5,0.2,0.8C66.6,10,66.4,10.1,66.2,10.1z
					 M36.2,6.2c-0.3,0-0.5-0.2-0.6-0.4C35.5,5.4,35.7,5.1,36,5c1.6-0.5,3.3-0.8,5-1.1c0.3,0,0.6,0.2,0.7,0.5S41.5,5,41.2,5.1
					c-1.6,0.3-3.2,0.6-4.8,1.1C36.3,6.2,36.3,6.2,36.2,6.2z M54.1,5.4c0,0-0.1,0-0.1,0c-1.6-0.3-3.2-0.5-4.9-0.6
					c-0.3,0-0.6-0.3-0.6-0.6c0-0.3,0.3-0.6,0.6-0.5c1.7,0.1,3.4,0.3,5,0.7c0.3,0.1,0.5,0.4,0.5,0.7C54.6,5.2,54.4,5.4,54.1,5.4z"/>
				
					<linearGradient id="SVGID_37_" gradientUnits="userSpaceOnUse" x1="83.1398" y1="616.7021" x2="84.4798" y2="616.7021" gradientTransform="matrix(1 0 0 1 0 -577.89)">
					<stop  offset="7.000000e-02" style="stop-color:#2A73FF"/>
					<stop  offset="0.21" style="stop-color:#2878FE"/>
					<stop  offset="0.38" style="stop-color:#2386FA"/>
					<stop  offset="0.56" style="stop-color:#1B9EF3"/>
					<stop  offset="0.74" style="stop-color:#0FBFEA"/>
					<stop  offset="0.93" style="stop-color:#00E9DF"/>
				</linearGradient>
				<path class="st45" d="M83.9,40.6c-0.3,0-0.6-0.3-0.6-0.6c0-0.8-0.1-1.6-0.2-2.3c0-0.3,0.2-0.6,0.5-0.6c0.3,0,0.6,0.2,0.7,0.5
					c0.1,0.8,0.1,1.6,0.2,2.4C84.5,40.3,84.2,40.6,83.9,40.6C83.9,40.6,83.9,40.6,83.9,40.6z"/>
			</g>
			<g>
				
					<linearGradient id="SVGID_38_" gradientUnits="userSpaceOnUse" x1="72.1536" y1="644.7209" x2="74.9916" y2="644.7209" gradientTransform="matrix(1 0 0 1 0 -577.89)">
					<stop  offset="7.000000e-02" style="stop-color:#2A73FF"/>
					<stop  offset="0.21" style="stop-color:#2878FE"/>
					<stop  offset="0.38" style="stop-color:#2386FA"/>
					<stop  offset="0.56" style="stop-color:#1B9EF3"/>
					<stop  offset="0.74" style="stop-color:#0FBFEA"/>
					<stop  offset="0.93" style="stop-color:#00E9DF"/>
				</linearGradient>
				<path class="st46" d="M72.8,68.3c-0.2,0-0.3-0.1-0.4-0.2c-0.2-0.2-0.2-0.6,0-0.8c0.6-0.5,1.1-1.1,1.6-1.7c0.2-0.3,0.6-0.3,0.8,0
					s0.3,0.6,0,0.8c-0.5,0.6-1.1,1.2-1.7,1.8C73.1,68.2,72.9,68.3,72.8,68.3z"/>
				
					<linearGradient id="SVGID_39_" gradientUnits="userSpaceOnUse" x1="10.3411" y1="642.4247" x2="67.0932" y2="642.4247" gradientTransform="matrix(1 0 0 1 0 -577.89)">
					<stop  offset="7.000000e-02" style="stop-color:#2A73FF"/>
					<stop  offset="0.21" style="stop-color:#2878FE"/>
					<stop  offset="0.38" style="stop-color:#2386FA"/>
					<stop  offset="0.56" style="stop-color:#1B9EF3"/>
					<stop  offset="0.74" style="stop-color:#0FBFEA"/>
					<stop  offset="0.93" style="stop-color:#00E9DF"/>
				</linearGradient>
				<path class="st47" d="M49.8,78.8c-0.3,0-0.6-0.2-0.6-0.6c0-0.3,0.2-0.6,0.6-0.6c1.6-0.1,3.2-0.4,4.8-0.7
					c0.3-0.1,0.6,0.1,0.7,0.5c0.1,0.3-0.1,0.6-0.5,0.7C53.1,78.4,51.5,78.6,49.8,78.8C49.8,78.8,49.8,78.8,49.8,78.8z M41.8,78.6
					C41.8,78.6,41.8,78.6,41.8,78.6c-1.7-0.2-3.4-0.6-5-1c-0.3-0.1-0.5-0.4-0.4-0.7c0.1-0.3,0.4-0.5,0.7-0.4c1.5,0.4,3.1,0.7,4.7,1
					c0.3,0,0.5,0.3,0.5,0.7C42.4,78.3,42.1,78.6,41.8,78.6z M62.2,75.5c-0.2,0-0.4-0.1-0.5-0.3c-0.1-0.3,0-0.7,0.3-0.8
					c1.4-0.7,2.9-1.4,4.3-2.3c0.3-0.2,0.6-0.1,0.8,0.2s0.1,0.6-0.2,0.8c-1.4,0.9-2.9,1.7-4.4,2.4C62.3,75.5,62.3,75.5,62.2,75.5z
					 M29.6,74.7c-0.1,0-0.2,0-0.3-0.1c-1.5-0.8-2.9-1.6-4.3-2.6c-0.3-0.2-0.3-0.6-0.2-0.8c0.2-0.3,0.6-0.3,0.8-0.2
					c1.3,0.9,2.7,1.8,4.1,2.5c0.3,0.2,0.4,0.5,0.3,0.8C30,74.6,29.8,74.7,29.6,74.7z M19.4,66.9c-0.2,0-0.3-0.1-0.4-0.2
					c-1.1-1.2-2.2-2.5-3.1-3.9c-0.2-0.3-0.1-0.6,0.1-0.8c0.3-0.2,0.6-0.1,0.8,0.2c0.9,1.3,1.9,2.6,3,3.8c0.2,0.2,0.2,0.6,0,0.8
					C19.7,66.8,19.6,66.9,19.4,66.9z M12.5,56.1c-0.2,0-0.5-0.1-0.5-0.4c-0.6-1.5-1.2-3.1-1.6-4.7c-0.1-0.3,0.1-0.6,0.4-0.7
					c0.3-0.1,0.6,0.1,0.7,0.4c0.4,1.6,1,3.1,1.6,4.6c0.1,0.3,0,0.7-0.3,0.8C12.7,56.1,12.6,56.1,12.5,56.1z"/>
				
					<linearGradient id="SVGID_40_" gradientUnits="userSpaceOnUse" x1="9.0545" y1="619.6893" x2="10.2887" y2="619.6893" gradientTransform="matrix(1 0 0 1 0 -577.89)">
					<stop  offset="7.000000e-02" style="stop-color:#2A73FF"/>
					<stop  offset="0.21" style="stop-color:#2878FE"/>
					<stop  offset="0.38" style="stop-color:#2386FA"/>
					<stop  offset="0.56" style="stop-color:#1B9EF3"/>
					<stop  offset="0.74" style="stop-color:#0FBFEA"/>
					<stop  offset="0.93" style="stop-color:#00E9DF"/>
				</linearGradient>
				<path class="st48" d="M9.7,43.6c-0.3,0-0.6-0.3-0.6-0.6c0-0.8,0-1.6,0-2.4c0-0.3,0.3-0.6,0.6-0.6h0c0.3,0,0.6,0.3,0.6,0.6
					c0,0.8,0,1.6,0,2.3C10.3,43.3,10,43.6,9.7,43.6C9.7,43.6,9.7,43.6,9.7,43.6z"/>
			</g>
			<g>
				
					<linearGradient id="SVGID_41_" gradientUnits="userSpaceOnUse" x1="-236.5536" y1="-835.4142" x2="-179.105" y2="-835.4142" gradientTransform="matrix(0.3674 0.93 -0.93 0.3674 -653.5538 541.2117)">
					<stop  offset="0" style="stop-color:#A6DBE1"/>
					<stop  offset="0" style="stop-color:#9AD9E8"/>
					<stop  offset="2.000000e-02" style="stop-color:#2A73FF"/>
					<stop  offset="8.000000e-02" style="stop-color:#2953FF"/>
					<stop  offset="0.15" style="stop-color:#2731FF"/>
					<stop  offset="0.21" style="stop-color:#261DFF"/>
					<stop  offset="0.25" style="stop-color:#2615FF"/>
					<stop  offset="0.26" style="stop-color:#2314F0"/>
					<stop  offset="0.29" style="stop-color:#1C11C7"/>
					<stop  offset="0.33" style="stop-color:#150EA1"/>
					<stop  offset="0.37" style="stop-color:#0F0C81"/>
					<stop  offset="0.41" style="stop-color:#0B0A65"/>
					<stop  offset="0.46" style="stop-color:#07094F"/>
					<stop  offset="0.52" style="stop-color:#04073E"/>
					<stop  offset="0.59" style="stop-color:#020733"/>
					<stop  offset="0.69" style="stop-color:#00062C"/>
					<stop  offset="0.97" style="stop-color:#00062A"/>
				</linearGradient>
				<path class="st49" d="M18.5,37.1c0,0.2,0,0.4,0.2,0.5l4.5,3c0,2.5,0.3,5.1,1.1,7.6l-3.5,4.1c-0.1,0.2-0.1,0.3,0,0.5l3.3,5.6
					c0.1,0.2,0.3,0.3,0.5,0.2l5.3-1.1c1.8,1.9,3.9,3.4,6.1,4.6l0.5,5.4c0,0.2,0.2,0.3,0.3,0.4l6.3,1.6c0.2,0,0.4,0,0.5-0.2l3-4.5
					c2.5,0,5.1-0.3,7.6-1.1l4.1,3.5c0.2,0.1,0.3,0.1,0.5,0l5.6-3.3c0.2-0.1,0.3-0.3,0.2-0.5l-1.1-5.3c1.9-1.8,3.4-3.9,4.6-6.1
					l5.4-0.5c0.2,0,0.3-0.2,0.4-0.3l1.6-6.3c0.1-0.2,0-0.4-0.2-0.5l-4.5-3c0-2.5-0.3-5.1-1.1-7.6l3.5-4.1c0.1-0.2,0.1-0.3,0-0.5
					l-3.3-5.6c-0.1-0.2-0.3-0.3-0.5-0.2l-5.3,1.1c-1.8-1.9-3.9-3.4-6.1-4.6l-0.5-5.4c0-0.2-0.2-0.3-0.3-0.4l-6.3-1.6
					c-0.2,0-0.4,0-0.5,0.2l-3,4.5c-2.5,0-5.1,0.3-7.6,1.1l-4.1-3.5c-0.2-0.1-0.3-0.1-0.5,0l-5.6,3.3c-0.2,0.1-0.3,0.3-0.2,0.5
					l1.1,5.3c-1.9,1.8-3.4,3.9-4.6,6.1l-5.4,0.5c-0.2,0-0.3,0.2-0.4,0.3L18.5,37.1z"/>
				<g>
					
						<linearGradient id="SVGID_42_" gradientUnits="userSpaceOnUse" x1="40.36" y1="618.9048" x2="53.69" y2="618.9048" gradientTransform="matrix(1 0 0 1 0 -577.89)">
						<stop  offset="7.000000e-02" style="stop-color:#2A73FF"/>
						<stop  offset="0.21" style="stop-color:#2878FE"/>
						<stop  offset="0.38" style="stop-color:#2386FA"/>
						<stop  offset="0.56" style="stop-color:#1B9EF3"/>
						<stop  offset="0.74" style="stop-color:#0FBFEA"/>
						<stop  offset="0.93" style="stop-color:#00E9DF"/>
						<stop  offset="0.96" style="stop-color:#00BAB6"/>
						<stop  offset="0.97" style="stop-color:#009294"/>
					</linearGradient>
					<path class="st50" d="M47,47.7C47,47.7,47,47.7,47,47.7c-1.8,0-3.5-0.7-4.7-1.9c-1.3-1.3-2-2.9-2-4.7s0.7-3.5,2-4.7
						c2.6-2.6,6.8-2.6,9.4,0c1.3,1.3,1.9,2.9,1.9,4.7s-0.7,3.5-1.9,4.7C50.5,47,48.8,47.7,47,47.7z M47,36.1c-1.3,0-2.5,0.5-3.5,1.4
						c-0.9,0.9-1.4,2.2-1.4,3.4c0,1.3,0.5,2.5,1.4,3.4c0.9,0.9,2.2,1.4,3.5,1.4l0,0c1.3,0,2.5-0.5,3.5-1.4c0.9-0.9,1.4-2.2,1.4-3.4
						c0-1.3-0.5-2.5-1.4-3.4C49.5,36.6,48.3,36.1,47,36.1z"/>
				</g>
				
					<linearGradient id="SVGID_43_" gradientUnits="userSpaceOnUse" x1="31.43" y1="618.9273" x2="63.75" y2="618.9273" gradientTransform="matrix(1 0 0 1 0 -577.89)">
					<stop  offset="7.000000e-02" style="stop-color:#2A73FF"/>
					<stop  offset="0.21" style="stop-color:#2878FE"/>
					<stop  offset="0.38" style="stop-color:#2386FA"/>
					<stop  offset="0.56" style="stop-color:#1B9EF3"/>
					<stop  offset="0.74" style="stop-color:#0FBFEA"/>
					<stop  offset="0.93" style="stop-color:#00E9DF"/>
					<stop  offset="0.96" style="stop-color:#00BAB6"/>
					<stop  offset="0.97" style="stop-color:#009294"/>
				</linearGradient>
				<path class="st51" d="M47.2,57.6c-5.7,0-11.2-2.9-14.3-8.1c-0.5-0.9-1-1.8-1.3-2.8c0-0.1-0.1-0.3-0.1-0.4l1.7-0.6
					c0.3,1,0.8,1.9,1.3,2.9l0,0c0.6,1,1.3,1.9,2.1,2.7c0,0,0,0,0,0l0,0c3.5,3.6,8.6,5.2,13.4,4.2c1.3-0.2,2.5-0.7,3.7-1.2
					c0,0,0.1,0,0.1-0.1c0,0,0.1,0,0.1-0.1c0.1,0,0.2-0.1,0.2-0.1c0.2-0.1,0.4-0.2,0.6-0.3c3.4-2,5.8-5.3,6.8-9.1
					c0.3-1.2,0.5-2.4,0.5-3.7c0-2.6-0.7-5.2-2.1-7.5c-2-3.4-5.3-5.8-9.1-6.8c-3.8-1-7.8-0.4-11.2,1.6c-2.3,1.4-4.2,3.3-5.5,5.7
					l-1.6-0.8c1.4-2.6,3.5-4.8,6.1-6.4c3.8-2.3,8.3-2.9,12.6-1.8s7.9,3.8,10.2,7.6c1.6,2.6,2.3,5.5,2.3,8.5c0,1.4-0.2,2.7-0.5,4.1
					c-1.1,4.3-3.8,7.9-7.6,10.2C53,56.9,50.1,57.6,47.2,57.6z"/>
			</g>
		</g>
	</g>
	<defs>
		<filter id="Adobe_OpacityMaskFilter_1_" filterUnits="userSpaceOnUse" x="9.1" y="3.5" width="75.4" height="75.2">
			<feColorMatrix  type="matrix" values="1 0 0 0 0  0 1 0 0 0  0 0 1 0 0  0 0 0 1 0"/>
		</filter>
	</defs>
	<mask maskUnits="userSpaceOnUse" x="9.1" y="3.5" width="75.4" height="75.2" id="SVGID_2_">
		<g class="st52">
			
				<image style="overflow:visible;enable-background:new    ;" width="333" height="338" xlink:href="9DE182F2.jpg"  transform="matrix(0.2357 0 0 0.2357 7.5188 1.3292)">
			</image>
		</g>
	</mask>
	<g class="st53">
		<g>
			<g>
				<path class="st54" d="M17.2,19.4c-0.1,0-0.3,0-0.4-0.1c-0.3-0.2-0.3-0.6-0.1-0.8c0.5-0.6,1-1.3,1.5-1.9c0.2-0.3,0.6-0.3,0.8-0.1
					s0.3,0.6,0.1,0.8c-0.5,0.6-1,1.2-1.5,1.8C17.5,19.3,17.3,19.4,17.2,19.4z"/>
				<path class="st54" d="M82.1,30.3c-0.3,0-0.5-0.2-0.6-0.4c-0.5-1.6-1.1-3.1-1.8-4.6c-0.2-0.3,0-0.7,0.3-0.8
					c0.3-0.2,0.7,0,0.8,0.3c0.7,1.5,1.4,3.1,1.9,4.7c0.1,0.3-0.1,0.6-0.4,0.8C82.2,30.3,82.2,30.3,82.1,30.3z M75.9,18.8
					c-0.2,0-0.3-0.1-0.5-0.2c-1-1.3-2.1-2.5-3.3-3.7c-0.2-0.2-0.2-0.6,0-0.8c0.2-0.2,0.6-0.2,0.8,0c1.2,1.2,2.3,2.4,3.4,3.8
					c0.2,0.3,0.2,0.6-0.1,0.8C76.2,18.7,76.1,18.8,75.9,18.8z M24.6,12c-0.2,0-0.4-0.1-0.5-0.2c-0.2-0.3-0.2-0.6,0.1-0.8
					c0.7-0.5,1.5-1,2.2-1.5c0.7-0.4,1.3-0.8,2-1.2c0.3-0.2,0.7,0,0.8,0.2c0.2,0.3,0,0.7-0.2,0.8c-0.7,0.4-1.3,0.8-2,1.2
					c-0.7,0.5-1.5,1-2.2,1.5C24.8,12,24.7,12,24.6,12z M66.2,10.1c-0.1,0-0.2,0-0.3-0.1c-1.4-0.8-2.8-1.6-4.3-2.3
					c-0.3-0.1-0.4-0.5-0.3-0.8s0.5-0.4,0.8-0.3c1.5,0.7,3,1.5,4.5,2.3c0.3,0.2,0.4,0.5,0.2,0.8C66.6,10,66.4,10.1,66.2,10.1z
					 M36.2,6.2c-0.3,0-0.5-0.2-0.6-0.4C35.5,5.4,35.7,5.1,36,5c1.6-0.5,3.3-0.8,5-1.1c0.3,0,0.6,0.2,0.7,0.5S41.5,5,41.2,5.1
					c-1.6,0.3-3.2,0.6-4.8,1.1C36.3,6.2,36.3,6.2,36.2,6.2z M54.1,5.4c0,0-0.1,0-0.1,0c-1.6-0.3-3.2-0.5-4.9-0.6
					c-0.3,0-0.6-0.3-0.6-0.6c0-0.3,0.3-0.6,0.6-0.5c1.7,0.1,3.4,0.3,5,0.7c0.3,0.1,0.5,0.4,0.5,0.7C54.6,5.2,54.4,5.4,54.1,5.4z"/>
				<path class="st54" d="M83.9,40.6c-0.3,0-0.6-0.3-0.6-0.6c0-0.8-0.1-1.6-0.2-2.3c0-0.3,0.2-0.6,0.5-0.6c0.3,0,0.6,0.2,0.7,0.5
					c0.1,0.8,0.1,1.6,0.2,2.4C84.5,40.3,84.2,40.6,83.9,40.6C83.9,40.6,83.9,40.6,83.9,40.6z"/>
			</g>
			<g>
				<path class="st54" d="M72.8,68.3c-0.2,0-0.3-0.1-0.4-0.2c-0.2-0.2-0.2-0.6,0-0.8c0.6-0.5,1.1-1.1,1.6-1.7c0.2-0.3,0.6-0.3,0.8,0
					s0.3,0.6,0,0.8c-0.5,0.6-1.1,1.2-1.7,1.8C73.1,68.2,72.9,68.3,72.8,68.3z"/>
				<path class="st54" d="M49.8,78.8c-0.3,0-0.6-0.2-0.6-0.6c0-0.3,0.2-0.6,0.6-0.6c1.6-0.1,3.2-0.4,4.8-0.7
					c0.3-0.1,0.6,0.1,0.7,0.5c0.1,0.3-0.1,0.6-0.5,0.7C53.1,78.4,51.5,78.6,49.8,78.8C49.8,78.8,49.8,78.8,49.8,78.8z M41.8,78.6
					C41.8,78.6,41.8,78.6,41.8,78.6c-1.7-0.2-3.4-0.6-5-1c-0.3-0.1-0.5-0.4-0.4-0.7c0.1-0.3,0.4-0.5,0.7-0.4c1.5,0.4,3.1,0.7,4.7,1
					c0.3,0,0.5,0.3,0.5,0.7C42.4,78.3,42.1,78.6,41.8,78.6z M62.2,75.5c-0.2,0-0.4-0.1-0.5-0.3c-0.1-0.3,0-0.7,0.3-0.8
					c1.4-0.7,2.9-1.4,4.3-2.3c0.3-0.2,0.6-0.1,0.8,0.2s0.1,0.6-0.2,0.8c-1.4,0.9-2.9,1.7-4.4,2.4C62.3,75.5,62.3,75.5,62.2,75.5z
					 M29.6,74.7c-0.1,0-0.2,0-0.3-0.1c-1.5-0.8-2.9-1.6-4.3-2.6c-0.3-0.2-0.3-0.6-0.2-0.8c0.2-0.3,0.6-0.3,0.8-0.2
					c1.3,0.9,2.7,1.8,4.1,2.5c0.3,0.2,0.4,0.5,0.3,0.8C30,74.6,29.8,74.7,29.6,74.7z M19.4,66.9c-0.2,0-0.3-0.1-0.4-0.2
					c-1.1-1.2-2.2-2.5-3.1-3.9c-0.2-0.3-0.1-0.6,0.1-0.8c0.3-0.2,0.6-0.1,0.8,0.2c0.9,1.3,1.9,2.6,3,3.8c0.2,0.2,0.2,0.6,0,0.8
					C19.7,66.8,19.6,66.9,19.4,66.9z M12.5,56.1c-0.2,0-0.5-0.1-0.5-0.4c-0.6-1.5-1.2-3.1-1.6-4.7c-0.1-0.3,0.1-0.6,0.4-0.7
					c0.3-0.1,0.6,0.1,0.7,0.4c0.4,1.6,1,3.1,1.6,4.6c0.1,0.3,0,0.7-0.3,0.8C12.7,56.1,12.6,56.1,12.5,56.1z"/>
				<path class="st54" d="M9.7,43.6c-0.3,0-0.6-0.3-0.6-0.6c0-0.8,0-1.6,0-2.4c0-0.3,0.3-0.6,0.6-0.6h0c0.3,0,0.6,0.3,0.6,0.6
					c0,0.8,0,1.6,0,2.3C10.3,43.3,10,43.6,9.7,43.6C9.7,43.6,9.7,43.6,9.7,43.6z"/>
			</g>
			<g>
				<path class="st54" d="M18.5,37.1c0,0.2,0,0.4,0.2,0.5l4.5,3c0,2.5,0.3,5.1,1.1,7.6l-3.5,4.1c-0.1,0.2-0.1,0.3,0,0.5l3.3,5.6
					c0.1,0.2,0.3,0.3,0.5,0.2l5.3-1.1c1.8,1.9,3.9,3.4,6.1,4.6l0.5,5.4c0,0.2,0.2,0.3,0.3,0.4l6.3,1.6c0.2,0,0.4,0,0.5-0.2l3-4.5
					c2.5,0,5.1-0.3,7.6-1.1l4.1,3.5c0.2,0.1,0.3,0.1,0.5,0l5.6-3.3c0.2-0.1,0.3-0.3,0.2-0.5l-1.1-5.3c1.9-1.8,3.4-3.9,4.6-6.1
					l5.4-0.5c0.2,0,0.3-0.2,0.4-0.3l1.6-6.3c0.1-0.2,0-0.4-0.2-0.5l-4.5-3c0-2.5-0.3-5.1-1.1-7.6l3.5-4.1c0.1-0.2,0.1-0.3,0-0.5
					l-3.3-5.6c-0.1-0.2-0.3-0.3-0.5-0.2l-5.3,1.1c-1.8-1.9-3.9-3.4-6.1-4.6l-0.5-5.4c0-0.2-0.2-0.3-0.3-0.4l-6.3-1.6
					c-0.2,0-0.4,0-0.5,0.2l-3,4.5c-2.5,0-5.1,0.3-7.6,1.1l-4.1-3.5c-0.2-0.1-0.3-0.1-0.5,0l-5.6,3.3c-0.2,0.1-0.3,0.3-0.2,0.5
					l1.1,5.3c-1.9,1.8-3.4,3.9-4.6,6.1l-5.4,0.5c-0.2,0-0.3,0.2-0.4,0.3L18.5,37.1z"/>
				<g>
					<path class="st54" d="M47,47.7C47,47.7,47,47.7,47,47.7c-1.8,0-3.5-0.7-4.7-1.9c-1.3-1.3-2-2.9-2-4.7s0.7-3.5,2-4.7
						c2.6-2.6,6.8-2.6,9.4,0c1.3,1.3,1.9,2.9,1.9,4.7s-0.7,3.5-1.9,4.7C50.5,47,48.8,47.7,47,47.7z M47,36.1c-1.3,0-2.5,0.5-3.5,1.4
						c-0.9,0.9-1.4,2.2-1.4,3.4c0,1.3,0.5,2.5,1.4,3.4c0.9,0.9,2.2,1.4,3.5,1.4l0,0c1.3,0,2.5-0.5,3.5-1.4c0.9-0.9,1.4-2.2,1.4-3.4
						c0-1.3-0.5-2.5-1.4-3.4C49.5,36.6,48.3,36.1,47,36.1z"/>
				</g>
				<path class="st54" d="M47.2,57.6c-5.7,0-11.2-2.9-14.3-8.1c-0.5-0.9-1-1.8-1.3-2.8c0-0.1-0.1-0.3-0.1-0.4l1.7-0.6
					c0.3,1,0.8,1.9,1.3,2.9l0,0c0.6,1,1.3,1.9,2.1,2.7c0,0,0,0,0,0l0,0c3.5,3.6,8.6,5.2,13.4,4.2c1.3-0.2,2.5-0.7,3.7-1.2
					c0,0,0.1,0,0.1-0.1c0,0,0.1,0,0.1-0.1c0.1,0,0.2-0.1,0.2-0.1c0.2-0.1,0.4-0.2,0.6-0.3c3.4-2,5.8-5.3,6.8-9.1
					c0.3-1.2,0.5-2.4,0.5-3.7c0-2.6-0.7-5.2-2.1-7.5c-2-3.4-5.3-5.8-9.1-6.8c-3.8-1-7.8-0.4-11.2,1.6c-2.3,1.4-4.2,3.3-5.5,5.7
					l-1.6-0.8c1.4-2.6,3.5-4.8,6.1-6.4c3.8-2.3,8.3-2.9,12.6-1.8s7.9,3.8,10.2,7.6c1.6,2.6,2.3,5.5,2.3,8.5c0,1.4-0.2,2.7-0.5,4.1
					c-1.1,4.3-3.8,7.9-7.6,10.2C53,56.9,50.1,57.6,47.2,57.6z"/>
			</g>
		</g>
	</g>
</g>
<g>
	<g>
		
			<linearGradient id="SVGID_44_" gradientUnits="userSpaceOnUse" x1="88.053" y1="602.4094" x2="89.4621" y2="602.4094" gradientTransform="matrix(1 0 0 1 0 -577.89)">
			<stop  offset="7.000000e-02" style="stop-color:#2A73FF"/>
			<stop  offset="0.21" style="stop-color:#2878FE"/>
			<stop  offset="0.38" style="stop-color:#2386FA"/>
			<stop  offset="0.56" style="stop-color:#1B9EF3"/>
			<stop  offset="0.74" style="stop-color:#0FBFEA"/>
			<stop  offset="0.93" style="stop-color:#00E9DF"/>
		</linearGradient>
		<path class="st55" d="M88.4,25.3c-0.1,0-0.1,0-0.2-0.1C88,25.2,88,25,88.1,24.8c0.3-0.3,0.5-0.7,0.8-1c0.1-0.1,0.3-0.2,0.4,0
			c0.1,0.1,0.2,0.3,0,0.4c-0.3,0.3-0.5,0.6-0.8,0.9C88.6,25.3,88.5,25.3,88.4,25.3z"/>
		
			<linearGradient id="SVGID_45_" gradientUnits="userSpaceOnUse" x1="91.9482" y1="601.9142" x2="122.7438" y2="601.9142" gradientTransform="matrix(1 0 0 1 0 -577.89)">
			<stop  offset="7.000000e-02" style="stop-color:#2A73FF"/>
			<stop  offset="0.21" style="stop-color:#2878FE"/>
			<stop  offset="0.38" style="stop-color:#2386FA"/>
			<stop  offset="0.56" style="stop-color:#1B9EF3"/>
			<stop  offset="0.74" style="stop-color:#0FBFEA"/>
			<stop  offset="0.93" style="stop-color:#00E9DF"/>
		</linearGradient>
		<path class="st56" d="M122.4,31c-0.1,0-0.3-0.1-0.3-0.2c-0.3-0.8-0.6-1.6-1-2.4c-0.1-0.2,0-0.3,0.1-0.4c0.1-0.1,0.3,0,0.4,0.2
			c0.4,0.8,0.7,1.6,1,2.5c0.1,0.2,0,0.3-0.2,0.4C122.5,31,122.5,31,122.4,31z M119.2,25c-0.1,0-0.2,0-0.3-0.1
			c-0.5-0.7-1.1-1.3-1.7-1.9c-0.1-0.1-0.1-0.3,0-0.4c0.1-0.1,0.3-0.1,0.4,0c0.6,0.6,1.2,1.3,1.8,2c0.1,0.1,0.1,0.3-0.1,0.4
			C119.3,25,119.3,25,119.2,25z M92.3,21.5c-0.1,0-0.2,0-0.3-0.1c-0.1-0.1-0.1-0.3,0.1-0.4c0.4-0.3,0.8-0.6,1.2-0.8
			c0.3-0.2,0.7-0.4,1.1-0.6c0.2-0.1,0.3,0,0.4,0.1c0.1,0.2,0,0.3-0.1,0.4c-0.3,0.2-0.7,0.4-1,0.6c-0.4,0.3-0.8,0.5-1.1,0.8
			C92.4,21.4,92.3,21.5,92.3,21.5z M114.1,20.5c-0.1,0-0.1,0-0.2,0c-0.7-0.4-1.5-0.8-2.3-1.2c-0.2-0.1-0.2-0.3-0.2-0.4
			s0.3-0.2,0.4-0.2c0.8,0.4,1.6,0.8,2.4,1.2c0.1,0.1,0.2,0.3,0.1,0.4C114.3,20.4,114.2,20.5,114.1,20.5z M98.4,18.4
			c-0.1,0-0.3-0.1-0.3-0.2c-0.1-0.2,0-0.3,0.2-0.4c0.8-0.3,1.7-0.5,2.6-0.6c0.2,0,0.3,0.1,0.3,0.3c0,0.2-0.1,0.3-0.3,0.3
			C100.1,17.9,99.3,18.1,98.4,18.4C98.4,18.4,98.4,18.4,98.4,18.4z M107.7,18C107.7,18,107.7,18,107.7,18c-0.9-0.2-1.8-0.3-2.6-0.3
			c-0.2,0-0.3-0.2-0.3-0.3c0-0.2,0.2-0.3,0.3-0.3c0.9,0.1,1.8,0.2,2.6,0.3c0.2,0,0.3,0.2,0.3,0.4C108,17.9,107.9,18,107.7,18z"/>
		
			<linearGradient id="SVGID_46_" gradientUnits="userSpaceOnUse" x1="122.9716" y1="613.4032" x2="123.6741" y2="613.4032" gradientTransform="matrix(1 0 0 1 0 -577.89)">
			<stop  offset="7.000000e-02" style="stop-color:#2A73FF"/>
			<stop  offset="0.21" style="stop-color:#2878FE"/>
			<stop  offset="0.38" style="stop-color:#2386FA"/>
			<stop  offset="0.56" style="stop-color:#1B9EF3"/>
			<stop  offset="0.74" style="stop-color:#0FBFEA"/>
			<stop  offset="0.93" style="stop-color:#00E9DF"/>
		</linearGradient>
		<path class="st57" d="M123.4,36.5c-0.2,0-0.3-0.1-0.3-0.3c0-0.4,0-0.8-0.1-1.2c0-0.2,0.1-0.3,0.3-0.3c0.2,0,0.3,0.1,0.3,0.3
			c0,0.4,0.1,0.8,0.1,1.3C123.7,36.3,123.5,36.4,123.4,36.5C123.4,36.5,123.4,36.5,123.4,36.5z"/>
	</g>
	<g>
		
			<linearGradient id="SVGID_47_" gradientUnits="userSpaceOnUse" x1="117.2112" y1="628.1022" x2="118.7004" y2="628.1022" gradientTransform="matrix(1 0 0 1 0 -577.89)">
			<stop  offset="7.000000e-02" style="stop-color:#2A73FF"/>
			<stop  offset="0.21" style="stop-color:#2878FE"/>
			<stop  offset="0.38" style="stop-color:#2386FA"/>
			<stop  offset="0.56" style="stop-color:#1B9EF3"/>
			<stop  offset="0.74" style="stop-color:#0FBFEA"/>
			<stop  offset="0.93" style="stop-color:#00E9DF"/>
		</linearGradient>
		<path class="st58" d="M117.5,51c-0.1,0-0.2,0-0.2-0.1c-0.1-0.1-0.1-0.3,0-0.4c0.3-0.3,0.6-0.6,0.9-0.9c0.1-0.1,0.3-0.1,0.4,0
			s0.1,0.3,0,0.4c-0.3,0.3-0.6,0.6-0.9,0.9C117.7,51,117.6,51,117.5,51z"/>
		
			<linearGradient id="SVGID_48_" gradientUnits="userSpaceOnUse" x1="84.7906" y1="626.8995" x2="114.5576" y2="626.8995" gradientTransform="matrix(1 0 0 1 0 -577.89)">
			<stop  offset="7.000000e-02" style="stop-color:#2A73FF"/>
			<stop  offset="0.21" style="stop-color:#2878FE"/>
			<stop  offset="0.38" style="stop-color:#2386FA"/>
			<stop  offset="0.56" style="stop-color:#1B9EF3"/>
			<stop  offset="0.74" style="stop-color:#0FBFEA"/>
			<stop  offset="0.93" style="stop-color:#00E9DF"/>
		</linearGradient>
		<path class="st59" d="M105.5,56.5c-0.2,0-0.3-0.1-0.3-0.3c0-0.2,0.1-0.3,0.3-0.3c0.8-0.1,1.7-0.2,2.5-0.4c0.2,0,0.3,0.1,0.4,0.2
			s-0.1,0.3-0.2,0.4C107.2,56.3,106.4,56.4,105.5,56.5C105.5,56.5,105.5,56.5,105.5,56.5z M101.3,56.4
			C101.3,56.4,101.3,56.4,101.3,56.4c-0.9-0.1-1.8-0.3-2.6-0.5c-0.2,0-0.3-0.2-0.2-0.4c0-0.2,0.2-0.3,0.4-0.2
			c0.8,0.2,1.7,0.4,2.5,0.5c0.2,0,0.3,0.2,0.3,0.3C101.6,56.2,101.5,56.4,101.3,56.4z M112,54.8c-0.1,0-0.2-0.1-0.3-0.2
			c-0.1-0.2,0-0.3,0.2-0.4c0.8-0.3,1.5-0.8,2.2-1.2c0.1-0.1,0.3-0.1,0.4,0.1s0.1,0.3-0.1,0.4c-0.7,0.5-1.5,0.9-2.3,1.2
			C112.1,54.8,112,54.8,112,54.8z M94.9,54.3c-0.1,0-0.1,0-0.1,0c-0.8-0.4-1.5-0.9-2.2-1.4c-0.1-0.1-0.2-0.3-0.1-0.4
			c0.1-0.1,0.3-0.2,0.4-0.1c0.7,0.5,1.4,0.9,2.2,1.3c0.2,0.1,0.2,0.3,0.1,0.4C95.1,54.3,95,54.3,94.9,54.3z M89.6,50.2
			c-0.1,0-0.2,0-0.2-0.1c-0.6-0.6-1.1-1.3-1.6-2c-0.1-0.1-0.1-0.3,0.1-0.4c0.1-0.1,0.3-0.1,0.4,0.1c0.5,0.7,1,1.4,1.6,2
			c0.1,0.1,0.1,0.3,0,0.4C89.7,50.2,89.6,50.2,89.6,50.2z M85.9,44.6c-0.1,0-0.2-0.1-0.3-0.2c-0.3-0.8-0.6-1.6-0.8-2.5
			c0-0.2,0.1-0.3,0.2-0.4s0.3,0.1,0.4,0.2c0.2,0.8,0.5,1.6,0.8,2.4c0.1,0.2,0,0.3-0.2,0.4C86,44.6,86,44.6,85.9,44.6z"/>
		
			<linearGradient id="SVGID_49_" gradientUnits="userSpaceOnUse" x1="84.1168" y1="614.9742" x2="84.7641" y2="614.9742" gradientTransform="matrix(1 0 0 1 0 -577.89)">
			<stop  offset="7.000000e-02" style="stop-color:#2A73FF"/>
			<stop  offset="0.21" style="stop-color:#2878FE"/>
			<stop  offset="0.38" style="stop-color:#2386FA"/>
			<stop  offset="0.56" style="stop-color:#1B9EF3"/>
			<stop  offset="0.74" style="stop-color:#0FBFEA"/>
			<stop  offset="0.93" style="stop-color:#00E9DF"/>
		</linearGradient>
		<path class="st60" d="M84.5,38c-0.2,0-0.3-0.1-0.3-0.3c0-0.4,0-0.8,0-1.3c0-0.2,0.1-0.3,0.3-0.3h0c0.2,0,0.3,0.2,0.3,0.3
			c0,0.4,0,0.8,0,1.2C84.8,37.9,84.6,38,84.5,38C84.5,38,84.5,38,84.5,38z"/>
	</g>
	<g>
		
			<linearGradient id="SVGID_50_" gradientUnits="userSpaceOnUse" x1="-205.9732" y1="-890.0215" x2="-175.8573" y2="-890.0215" gradientTransform="matrix(0.3674 0.93 -0.93 0.3674 -653.5538 541.2117)">
			<stop  offset="0" style="stop-color:#A6DBE1"/>
			<stop  offset="0" style="stop-color:#9AD9E8"/>
			<stop  offset="2.000000e-02" style="stop-color:#2A73FF"/>
			<stop  offset="8.000000e-02" style="stop-color:#2953FF"/>
			<stop  offset="0.15" style="stop-color:#2731FF"/>
			<stop  offset="0.21" style="stop-color:#261DFF"/>
			<stop  offset="0.25" style="stop-color:#2615FF"/>
			<stop  offset="0.26" style="stop-color:#2314F0"/>
			<stop  offset="0.29" style="stop-color:#1C11C7"/>
			<stop  offset="0.33" style="stop-color:#150EA1"/>
			<stop  offset="0.37" style="stop-color:#0F0C81"/>
			<stop  offset="0.41" style="stop-color:#0B0A65"/>
			<stop  offset="0.46" style="stop-color:#07094F"/>
			<stop  offset="0.52" style="stop-color:#04073E"/>
			<stop  offset="0.59" style="stop-color:#020733"/>
			<stop  offset="0.69" style="stop-color:#00062C"/>
			<stop  offset="0.97" style="stop-color:#00062A"/>
		</linearGradient>
		<path class="st61" d="M89.1,34.6c0,0.1,0,0.2,0.1,0.3l2.4,1.6c0,1.3,0.2,2.7,0.6,4l-1.8,2.2c-0.1,0.1-0.1,0.2,0,0.3l1.7,2.9
			c0.1,0.1,0.2,0.1,0.3,0.1l2.8-0.6c0.9,1,2,1.8,3.2,2.4l0.2,2.8c0,0.1,0.1,0.2,0.2,0.2l3.3,0.8c0.1,0,0.2,0,0.3-0.1l1.6-2.4
			c1.3,0,2.7-0.2,4-0.6l2.2,1.8c0.1,0.1,0.2,0.1,0.3,0l2.9-1.7c0.1-0.1,0.1-0.2,0.1-0.3l-0.6-2.8c1-0.9,1.8-2,2.4-3.2l2.8-0.2
			c0.1,0,0.2-0.1,0.2-0.2l0.8-3.3c0-0.1,0-0.2-0.1-0.3l-2.4-1.6c0-1.3-0.2-2.7-0.6-4l1.8-2.2c0.1-0.1,0.1-0.2,0-0.3l-1.7-2.9
			c-0.1-0.1-0.1-0.1-0.3-0.1L113,28c-0.9-1-2-1.8-3.2-2.4l-0.2-2.8c0-0.1-0.1-0.2-0.2-0.2l-3.3-0.8c-0.1,0-0.2,0-0.3,0.1l-1.6,2.4
			c-1.3,0-2.7,0.2-4,0.6l-2.2-1.8c-0.1-0.1-0.2-0.1-0.3,0l-2.9,1.7c-0.1,0.1-0.1,0.2-0.1,0.3l0.6,2.8c-1,0.9-1.8,2-2.4,3.2l-2.8,0.2
			c-0.1,0-0.2,0.1-0.2,0.2L89.1,34.6z"/>
		<g>
			
				<linearGradient id="SVGID_51_" gradientUnits="userSpaceOnUse" x1="100.54" y1="614.5749" x2="107.53" y2="614.5749" gradientTransform="matrix(1 0 0 1 0 -577.89)">
				<stop  offset="7.000000e-02" style="stop-color:#2A73FF"/>
				<stop  offset="0.21" style="stop-color:#2878FE"/>
				<stop  offset="0.38" style="stop-color:#2386FA"/>
				<stop  offset="0.56" style="stop-color:#1B9EF3"/>
				<stop  offset="0.74" style="stop-color:#0FBFEA"/>
				<stop  offset="0.93" style="stop-color:#00E9DF"/>
				<stop  offset="0.96" style="stop-color:#00BAB6"/>
				<stop  offset="0.97" style="stop-color:#009294"/>
			</linearGradient>
			<path class="st62" d="M104,40.2L104,40.2c-0.9,0-1.8-0.4-2.5-1c-0.7-0.7-1-1.5-1-2.5s0.4-1.8,1-2.5c1.4-1.4,3.6-1.4,4.9,0
				c0.7,0.7,1,1.5,1,2.5s-0.4,1.8-1,2.5C105.8,39.8,105,40.2,104,40.2z M104,34.1c-0.7,0-1.3,0.3-1.8,0.8c-0.5,0.5-0.8,1.1-0.8,1.8
				c0,0.7,0.3,1.3,0.8,1.8c0.5,0.5,1.1,0.8,1.8,0.8l0,0c0.7,0,1.3-0.3,1.8-0.8c0.5-0.5,0.8-1.1,0.8-1.8c0-0.7-0.3-1.3-0.8-1.8
				C105.3,34.4,104.7,34.1,104,34.1z"/>
		</g>
		
			<linearGradient id="SVGID_52_" gradientUnits="userSpaceOnUse" x1="95.86" y1="614.5744" x2="112.82" y2="614.5744" gradientTransform="matrix(1 0 0 1 0 -577.89)">
			<stop  offset="7.000000e-02" style="stop-color:#2A73FF"/>
			<stop  offset="0.21" style="stop-color:#2878FE"/>
			<stop  offset="0.38" style="stop-color:#2386FA"/>
			<stop  offset="0.56" style="stop-color:#1B9EF3"/>
			<stop  offset="0.74" style="stop-color:#0FBFEA"/>
			<stop  offset="0.93" style="stop-color:#00E9DF"/>
			<stop  offset="0.96" style="stop-color:#00BAB6"/>
			<stop  offset="0.97" style="stop-color:#009294"/>
		</linearGradient>
		<path class="st63" d="M104.1,45.4c-3,0-5.9-1.5-7.5-4.2c-0.3-0.5-0.5-1-0.7-1.5c0-0.1-0.1-0.1-0.1-0.2l0.9-0.3
			c0.2,0.5,0.4,1,0.7,1.5l0,0c0.3,0.5,0.7,1,1.1,1.4c0,0,0,0,0,0l0,0c1.8,1.9,4.5,2.7,7,2.2c0.7-0.1,1.3-0.3,1.9-0.7c0,0,0,0,0.1,0
			s0,0,0.1,0c0,0,0.1,0,0.1-0.1c0.1-0.1,0.2-0.1,0.3-0.2c1.8-1.1,3-2.8,3.6-4.8c0.2-0.6,0.2-1.3,0.2-1.9c0-1.4-0.4-2.7-1.1-4
			c-1.1-1.8-2.8-3-4.8-3.6s-4.1-0.2-5.9,0.9c-1.2,0.7-2.2,1.8-2.9,3l-0.8-0.4c0.7-1.4,1.8-2.5,3.2-3.3c2-1.2,4.3-1.5,6.6-1
			s4.2,2,5.3,4c0.8,1.4,1.2,2.9,1.2,4.4c0,0.7-0.1,1.4-0.3,2.2c-0.6,2.3-2,4.2-4,5.3C107.2,45,105.6,45.4,104.1,45.4z"/>
	</g>
</g>
<g>
	<path class="st64" d="M248,228.3l3.3,1.9c0.2,0.1,0.5,0.1,0.7,0l2.3-1.3c0.2-0.1,0.2-0.3,0-0.4l-3.3-1.9c-0.2-0.1-0.5-0.1-0.7,0
		l-2.3,1.3C247.9,228,247.8,228.2,248,228.3z"/>
	<path class="st64" d="M223,231.8l-3.1-1.8c-0.2-0.1-0.5-0.1-0.7,0l-3.5,2c-0.2,0.1-0.2,0.3-0.1,0.4l3.1,1.8c0.2,0.1,0.5,0.1,0.7,0
		l3.5-2C223.2,232.1,223.2,231.9,223,231.8z"/>
	<path class="st64" d="M246.8,233.3l3.1,1.8c0.2,0.1,0.5,0.1,0.7,0l3.5-2c0.2-0.1,0.2-0.3,0-0.4l-3.1-1.8c-0.2-0.1-0.5-0.1-0.7,0
		l-3.5,2C246.6,233,246.6,233.2,246.8,233.3z"/>
	<path class="st64" d="M243.4,225.6l3.3,1.9c0.2,0.1,0.5,0.1,0.7,0l2.3-1.3c0.2-0.1,0.2-0.3,0-0.4l-3.3-1.9c-0.2-0.1-0.5-0.1-0.7,0
		l-2.3,1.3C243.3,225.3,243.2,225.5,243.4,225.6z"/>
	<path class="st64" d="M251.1,235.8l3.1,1.8c0.2,0.1,0.5,0.1,0.7,0l3.5-2c0.2-0.1,0.2-0.3,0-0.4l-3.1-1.8c-0.2-0.1-0.5-0.1-0.7,0
		l-3.5,2C251,235.5,250.9,235.7,251.1,235.8z"/>
	<path class="st64" d="M252.6,230.9l3.3,1.9c0.2,0.1,0.5,0.1,0.7,0l2.3-1.3c0.2-0.1,0.2-0.3,0-0.4l-3.3-1.9c-0.2-0.1-0.5-0.1-0.7,0
		l-2.3,1.3C252.4,230.6,252.4,230.8,252.6,230.9z"/>
	<path class="st64" d="M225.7,227.7l-6.4-3.7c-0.2-0.1-0.5-0.1-0.7,0l-3.5,2c-0.2,0.1-0.2,0.3-0.1,0.4l6.4,3.7
		c0.2,0.1,0.5,0.1,0.7,0l3.5-2C225.9,227.9,225.9,227.8,225.7,227.7z"/>
	<path class="st64" d="M238.1,228.3l3.1,1.8c0.2,0.1,0.5,0.1,0.7,0l3.5-2c0.2-0.1,0.2-0.3,0-0.4l-3.1-1.8c-0.2-0.1-0.5-0.1-0.7,0
		l-3.5,2C237.9,228,237.9,228.2,238.1,228.3z"/>
	<path class="st64" d="M218.7,229.3l-4.3-2.5c-0.2-0.1-0.5-0.1-0.7,0l-3.5,2c-0.2,0.1-0.2,0.3-0.1,0.4l4.3,2.5
		c0.2,0.1,0.5,0.1,0.7,0l3.5-2C218.9,229.6,218.9,229.4,218.7,229.3z"/>
	<path class="st64" d="M257.2,233.6l3.3,1.9c0.2,0.1,0.5,0.1,0.7,0l2.3-1.3c0.2-0.1,0.2-0.3,0-0.4l-3.3-1.9c-0.2-0.1-0.5-0.1-0.7,0
		l-2.3,1.3C257.1,233.3,257,233.5,257.2,233.6z"/>
	<path class="st64" d="M233.2,225l3.5-2c0.2-0.1,0.2-0.3,0.1-0.4l-3.1-1.8c-0.2-0.1-0.5-0.1-0.7,0l-3.5,2c-0.2,0.1-0.2,0.3-0.1,0.4
		l3.1,1.8C232.7,225.1,233,225.1,233.2,225z"/>
	<path class="st64" d="M240.6,220.5l-3.3-1.9c-0.2-0.1-0.5-0.1-0.7,0l-2.3,1.3c-0.2,0.1-0.2,0.3-0.1,0.4l3.3,1.9
		c0.2,0.1,0.5,0.1,0.7,0l2.3-1.3C240.7,220.8,240.7,220.6,240.6,220.5z"/>
	<path class="st64" d="M245.2,223.1l-3.3-1.9c-0.2-0.1-0.5-0.1-0.7,0l-2.3,1.3c-0.2,0.1-0.2,0.3-0.1,0.4l3.3,1.9
		c0.2,0.1,0.5,0.1,0.7,0l2.3-1.3C245.3,223.4,245.3,223.2,245.2,223.1z"/>
	<path class="st64" d="M233.8,225.8l3.1,1.8c0.2,0.1,0.5,0.1,0.7,0l3.5-2c0.2-0.1,0.2-0.3,0-0.4l-3.1-1.8c-0.2-0.1-0.5-0.1-0.7,0
		l-3.5,2C233.6,225.5,233.6,225.7,233.8,225.8z"/>
	<path class="st64" d="M242.4,230.8l3.1,1.8c0.2,0.1,0.5,0.1,0.7,0l3.5-2c0.2-0.1,0.2-0.3,0-0.4l-3.1-1.8c-0.2-0.1-0.5-0.1-0.7,0
		l-3.5,2C242.3,230.5,242.3,230.7,242.4,230.8z"/>
	<path class="st64" d="M275.6,244.2l3.3,1.9c0.2,0.1,0.5,0.1,0.7,0l2.3-1.3c0.2-0.1,0.2-0.3,0-0.4l-3.3-1.9c-0.2-0.1-0.5-0.1-0.7,0
		l-2.3,1.3C275.4,243.9,275.4,244.1,275.6,244.2z"/>
	<path class="st64" d="M280.2,246.8l3.3,1.9c0.2,0.1,0.5,0.1,0.7,0l2.3-1.3c0.2-0.1,0.2-0.3,0-0.4l-3.3-1.9c-0.2-0.1-0.5-0.1-0.7,0
		l-2.3,1.3C280,246.6,280,246.7,280.2,246.8z"/>
	<path class="st64" d="M272.8,248.3l3.1,1.8c0.2,0.1,0.5,0.1,0.7,0l3.5-2c0.2-0.1,0.2-0.3,0-0.4l-3.1-1.8c-0.2-0.1-0.5-0.1-0.7,0
		l-3.5,2C272.6,248,272.6,248.2,272.8,248.3z"/>
	<path class="st64" d="M277.1,250.8l3.1,1.8c0.2,0.1,0.5,0.1,0.7,0l3.5-2c0.2-0.1,0.2-0.3,0-0.4l-3.1-1.8c-0.2-0.1-0.5-0.1-0.7,0
		l-3.5,2C277,250.5,277,250.7,277.1,250.8z"/>
	<path class="st64" d="M267.5,262.4l4.8,2.8c0.2,0.1,0.5,0.1,0.7,0l3.5-2c0.2-0.1,0.2-0.3,0-0.4l-4.8-2.8c-0.2-0.1-0.5-0.1-0.7,0
		l-3.5,2C267.4,262.1,267.4,262.3,267.5,262.4z"/>
	<path class="st64" d="M291.1,249.7l-3.3-1.9c-0.2-0.1-0.5-0.1-0.7,0l-2.3,1.3c-0.2,0.1-0.2,0.3,0,0.4l3.3,1.9
		c0.2,0.1,0.5,0.1,0.7,0l2.3-1.3C291.3,249.9,291.3,249.8,291.1,249.7z"/>
	<path class="st64" d="M232.4,220.1l-3.2-1.8c-0.2-0.1-0.5-0.1-0.7,0l-3.5,2c-0.2,0.1-0.2,0.3-0.1,0.4l3.2,1.8
		c0.2,0.1,0.5,0.1,0.7,0l3.5-2C232.5,220.3,232.5,220.2,232.4,220.1z"/>
	<path class="st64" d="M261.8,236.2l3.3,1.9c0.2,0.1,0.5,0.1,0.7,0l2.3-1.3c0.2-0.1,0.2-0.3,0-0.4l-3.3-1.9c-0.2-0.1-0.5-0.1-0.7,0
		l-2.3,1.3C261.6,235.9,261.6,236.1,261.8,236.2z"/>
	<path class="st64" d="M266.4,238.9l3.3,1.9c0.2,0.1,0.5,0.1,0.7,0l2.3-1.3c0.2-0.1,0.2-0.3,0-0.4l-3.3-1.9c-0.2-0.1-0.5-0.1-0.7,0
		l-2.3,1.3C266.2,238.6,266.2,238.8,266.4,238.9z"/>
	<path class="st64" d="M259.8,240.8l3.1,1.8c0.2,0.1,0.5,0.1,0.7,0l3.5-2c0.2-0.1,0.2-0.3,0-0.4l-3.1-1.8c-0.2-0.1-0.5-0.1-0.7,0
		l-3.5,2C259.6,240.5,259.6,240.7,259.8,240.8z"/>
	<path class="st64" d="M268.5,245.8l3.1,1.8c0.2,0.1,0.5,0.1,0.7,0l3.5-2c0.2-0.1,0.2-0.3,0-0.4l-3.1-1.8c-0.2-0.1-0.5-0.1-0.7,0
		l-3.5,2C268.3,245.5,268.3,245.7,268.5,245.8z"/>
	<path class="st64" d="M255.4,238.3l3.1,1.8c0.2,0.1,0.5,0.1,0.7,0l3.5-2c0.2-0.1,0.2-0.3,0-0.4l-3.1-1.8c-0.2-0.1-0.5-0.1-0.7,0
		l-3.5,2C255.3,238,255.3,238.2,255.4,238.3z"/>
	<path class="st64" d="M264.1,243.3l3.1,1.8c0.2,0.1,0.5,0.1,0.7,0l3.5-2c0.2-0.1,0.2-0.3,0-0.4l-3.1-1.8c-0.2-0.1-0.5-0.1-0.7,0
		l-3.5,2C264,243,264,243.2,264.1,243.3z"/>
	<path class="st64" d="M271,241.5l3.3,1.9c0.2,0.1,0.5,0.1,0.7,0l2.3-1.3c0.2-0.1,0.2-0.3,0-0.4l-3.3-1.9c-0.2-0.1-0.5-0.1-0.7,0
		l-2.3,1.3C270.8,241.3,270.8,241.4,271,241.5z"/>
	<path class="st64" d="M277.5,257.5l-3.1-1.8c-0.2-0.1-0.5-0.1-0.7,0l-3.5,2c-0.2,0.1-0.2,0.3,0,0.4l3.1,1.8c0.2,0.1,0.5,0.1,0.7,0
		l3.5-2C277.6,257.8,277.6,257.6,277.5,257.5z"/>
	<path class="st64" d="M273.1,255l-3.1-1.8c-0.2-0.1-0.5-0.1-0.7,0l-3.5,2c-0.2,0.1-0.2,0.3,0,0.4l3.1,1.8c0.2,0.1,0.5,0.1,0.7,0
		l3.5-2C273.3,255.3,273.3,255.1,273.1,255z"/>
	<path class="st64" d="M270.5,259.2l-3.1-1.8c-0.2-0.1-0.5-0.1-0.7,0l-3.5,2c-0.2,0.1-0.2,0.3,0,0.4l3.1,1.8c0.2,0.1,0.5,0.1,0.7,0
		l3.5-2C270.6,259.5,270.6,259.3,270.5,259.2z"/>
	<path class="st64" d="M266.1,256.7l-3.1-1.8c-0.2-0.1-0.5-0.1-0.7,0l-3.5,2c-0.2,0.1-0.2,0.3,0,0.4l3.1,1.8c0.2,0.1,0.5,0.1,0.7,0
		l3.5-2C266.3,257,266.3,256.8,266.1,256.7z"/>
	<path class="st64" d="M261.8,254.2L228.6,235c-0.2-0.1-0.5-0.1-0.7,0l-3.5,2c-0.2,0.1-0.2,0.3-0.1,0.4l33.3,19.2
		c0.2,0.1,0.5,0.1,0.7,0l3.5-2C262,254.5,262,254.3,261.8,254.2z"/>
	<path class="st64" d="M248.8,253.6l-19-11c-0.2-0.1-0.5-0.1-0.7,0l-10.6,6.2c-0.2,0.1-0.2,0.3-0.1,0.4l19,11c0.2,0.1,0.5,0.1,0.7,0
		l10.6-6.2C249,253.8,249,253.7,248.8,253.6z"/>
	<path class="st64" d="M268.8,252.6l-3.1-1.8c-0.2-0.1-0.5-0.1-0.7,0l-3.5,2c-0.2,0.1-0.2,0.3,0,0.4l3.1,1.8c0.2,0.1,0.5,0.1,0.7,0
		l3.5-2C269,252.8,269,252.7,268.8,252.6z"/>
	<path class="st64" d="M264.5,250.1l-3.1-1.8c-0.2-0.1-0.5-0.1-0.7,0l-3.5,2c-0.2,0.1-0.2,0.3,0,0.4l3.1,1.8c0.2,0.1,0.5,0.1,0.7,0
		l3.5-2C264.7,250.3,264.7,250.2,264.5,250.1z"/>
	<path class="st64" d="M289.4,252.1l2.6,1.5c0.2,0.1,0.5,0.1,0.7,0l2.3-1.3c0.2-0.1,0.2-0.3,0-0.4l-2.6-1.5c-0.2-0.1-0.5-0.1-0.7,0
		l-2.3,1.3C289.2,251.9,289.2,252,289.4,252.1z"/>
	<path class="st64" d="M233.6,219.6l2.3-1.3c0.2-0.1,0.2-0.3,0.1-0.4l-3.1-1.8c-0.2-0.1-0.5-0.1-0.7,0l-2.3,1.3
		c-0.2,0.1-0.2,0.3-0.1,0.4l3.1,1.8C233.1,219.7,233.4,219.7,233.6,219.6z"/>
	<path class="st64" d="M281.5,253.3l5.6,3.2c0.2,0.1,0.5,0.1,0.7,0l3.5-2c0.2-0.1,0.2-0.3,0-0.4l-5.6-3.2c-0.2-0.1-0.5-0.1-0.7,0
		l-3.5,2C281.3,253,281.3,253.2,281.5,253.3z"/>
	<path class="st64" d="M274.5,260.7l2.8,1.6c0.2,0.1,0.5,0.1,0.7,0l3.5-2c0.2-0.1,0.2-0.3,0-0.4l-2.8-1.6c-0.2-0.1-0.5-0.1-0.7,0
		l-3.5,2C274.4,260.4,274.3,260.6,274.5,260.7z"/>
	<path class="st64" d="M277.8,256.9L277.8,256.9c-0.2-0.1-0.1-0.3,0-0.4l3.5-2c0.2-0.1,0.2-0.3,0-0.4l-3.1-1.8
		c-0.2-0.1-0.5-0.1-0.7,0l-3.5,2c-0.2,0.1-0.5,0.1-0.7,0l0,0c-0.2-0.1-0.1-0.3,0-0.4l3.5-2c0.2-0.1,0.2-0.3,0-0.4l-3.1-1.8
		c-0.2-0.1-0.5-0.1-0.7,0l-3.5,2c-0.2,0.1-0.5,0.1-0.7,0l0,0c-0.2-0.1-0.1-0.3,0-0.4l3.5-2c0.2-0.1,0.2-0.3,0-0.4l-3.1-1.8
		c-0.2-0.1-0.5-0.1-0.7,0l-3.5,2c-0.2,0.1-0.5,0.1-0.7,0l0,0c-0.2-0.1-0.1-0.3,0-0.4l3.5-2c0.2-0.1,0.2-0.3,0-0.4l-3.1-1.8
		c-0.2-0.1-0.5-0.1-0.7,0l-3.5,2c-0.2,0.1-0.5,0.1-0.7,0l0,0c-0.2-0.1-0.1-0.3,0-0.4l3.5-2c0.2-0.1,0.2-0.3,0-0.4l-3.1-1.8
		c-0.2-0.1-0.5-0.1-0.7,0l-3.5,2c-0.2,0.1-0.5,0.1-0.7,0l0,0c-0.2-0.1-0.1-0.3,0-0.4l3.5-2c0.2-0.1,0.2-0.3,0-0.4l-3.1-1.8
		c-0.2-0.1-0.5-0.1-0.7,0l-3.5,2c-0.2,0.1-0.5,0.1-0.7,0l0,0c-0.2-0.1-0.1-0.3,0-0.4l3.5-2c0.2-0.1,0.2-0.3,0-0.4l-3.1-1.8
		c-0.2-0.1-0.5-0.1-0.7,0l-3.5,2c-0.2,0.1-0.5,0.1-0.7,0l0,0c-0.2-0.1-0.1-0.3,0-0.4l3.5-2c0.2-0.1,0.2-0.3,0-0.4l-3.1-1.8
		c-0.2-0.1-0.5-0.1-0.7,0l-3.5,2c-0.2,0.1-0.5,0.1-0.7,0l0,0c-0.2-0.1-0.1-0.3,0-0.4l3.5-2c0.2-0.1,0.2-0.3,0-0.4l-3.1-1.8
		c-0.2-0.1-0.5-0.1-0.7,0l-3.4,2c-0.2,0.1-0.5,0.1-0.7,0l0,0c-0.2-0.1-0.1-0.3,0.1-0.4l3.4-2c0.2-0.1,0.2-0.3,0-0.4l-3.1-1.8
		c-0.2-0.1-0.5-0.1-0.7,0l-3.4,2c-0.2,0.1-0.5,0.1-0.7,0l0,0c-0.2-0.1-0.1-0.3,0.1-0.4l3.4-2c0.2-0.1,0.2-0.3,0.1-0.4l-3.1-1.8
		c-0.2-0.1-0.5-0.1-0.7,0l-3.4,2c-0.2,0.1-0.5,0.1-0.7,0l0,0c-0.2-0.1-0.1-0.3,0.1-0.4l3.4-2c0.2-0.1,0.2-0.3,0.1-0.4l-3.1-1.8
		c-0.2-0.1-0.5-0.1-0.7,0l-3.4,2c-0.2,0.1-0.5,0.1-0.7,0l0,0c-0.2-0.1-0.1-0.3,0.1-0.4l3.4-2c0.2-0.1,0.2-0.3,0.1-0.4l-5.3-3.1
		c-0.2-0.1-0.5-0.1-0.7,0l-3.5,2c-0.2,0.1-0.2,0.3-0.1,0.4l62.1,35.9c0.2,0.1,0.5,0.1,0.7,0l3.5-2c0.2-0.1,0.2-0.3,0-0.4l-3.8-2.2
		c-0.2-0.1-0.5-0.1-0.7,0l-3.5,2C278.3,256.9,278,257,277.8,256.9z"/>
	<path class="st64" d="M247.3,240.1l-3.1-1.8c-0.2-0.1-0.5-0.1-0.7,0l-3.5,2c-0.2,0.1-0.2,0.3-0.1,0.4l3.1,1.8
		c0.2,0.1,0.5,0.1,0.7,0l3.5-2C247.4,240.4,247.5,240.2,247.3,240.1z"/>
	<path class="st64" d="M260.2,247.6l-3.1-1.8c-0.2-0.1-0.5-0.1-0.7,0l-3.5,2c-0.2,0.1-0.2,0.3,0,0.4l3.1,1.8c0.2,0.1,0.5,0.1,0.7,0
		l3.5-2C260.4,247.9,260.4,247.7,260.2,247.6z"/>
	<path class="st64" d="M238.7,235.1l-3.1-1.8c-0.2-0.1-0.5-0.1-0.7,0l-3.5,2c-0.2,0.1-0.2,0.3-0.1,0.4l3.1,1.8
		c0.2,0.1,0.5,0.1,0.7,0l3.5-2C238.8,235.4,238.8,235.2,238.7,235.1z"/>
	<path class="st64" d="M243,237.6l-3.1-1.8c-0.2-0.1-0.5-0.1-0.7,0l-3.5,2c-0.2,0.1-0.2,0.3-0.1,0.4l3.1,1.8c0.2,0.1,0.5,0.1,0.7,0
		l3.5-2C243.1,237.9,243.1,237.7,243,237.6z"/>
	<path class="st64" d="M234.3,232.6l-3.1-1.8c-0.2-0.1-0.5-0.1-0.7,0l-3.5,2c-0.2,0.1-0.2,0.3-0.1,0.4l3.1,1.8
		c0.2,0.1,0.5,0.1,0.7,0l3.5-2C234.5,232.9,234.5,232.7,234.3,232.6z"/>
	<path class="st64" d="M227.4,234.3l-3.1-1.8c-0.2-0.1-0.5-0.1-0.7,0l-3.5,2c-0.2,0.1-0.2,0.3-0.1,0.4l3.1,1.8
		c0.2,0.1,0.5,0.1,0.7,0l3.5-2C227.5,234.6,227.5,234.4,227.4,234.3z"/>
	<path class="st64" d="M251.6,242.6l-3.1-1.8c-0.2-0.1-0.5-0.1-0.7,0l-3.5,2c-0.2,0.1-0.2,0.3,0,0.4l3.1,1.8c0.2,0.1,0.5,0.1,0.7,0
		l3.5-2C251.7,242.9,251.8,242.7,251.6,242.6z"/>
	<path class="st64" d="M255.9,245.1l-3.1-1.8c-0.2-0.1-0.5-0.1-0.7,0l-3.5,2c-0.2,0.1-0.2,0.3,0,0.4l3.1,1.8c0.2,0.1,0.5,0.1,0.7,0
		l3.5-2C256.1,245.4,256.1,245.2,255.9,245.1z"/>
	<path class="st64" d="M230,230.2l-3.1-1.8c-0.2-0.1-0.5-0.1-0.7,0l-3.5,2c-0.2,0.1-0.2,0.3-0.1,0.4l3.1,1.8c0.2,0.1,0.5,0.1,0.7,0
		l3.5-2C230.2,230.4,230.2,230.3,230,230.2z"/>
</g>
<g>
	
		<linearGradient id="SVGID_53_" gradientUnits="userSpaceOnUse" x1="203.8061" y1="5.1556" x2="244.7733" y2="5.1556" gradientTransform="matrix(0.5923 -0.8057 -0.8057 -0.5923 297.9521 269.4731)">
		<stop  offset="0" style="stop-color:#2A73FF"/>
		<stop  offset="0.1366" style="stop-color:#235BDC"/>
		<stop  offset="0.3297" style="stop-color:#1A3EB2"/>
		<stop  offset="0.5174" style="stop-color:#142890"/>
		<stop  offset="0.6958" style="stop-color:#0F1778"/>
		<stop  offset="0.8609" style="stop-color:#0C0D6A"/>
		<stop  offset="1" style="stop-color:#0B0A65"/>
	</linearGradient>
	<polygon class="st65" points="445.7,119.6 407.1,96.7 407.6,51.8 446.2,74.7 	"/>
	
		<linearGradient id="SVGID_54_" gradientUnits="userSpaceOnUse" x1="208.2659" y1="-26.4549" x2="285.7266" y2="-26.4549" gradientTransform="matrix(0.5923 -0.8057 -0.8057 -0.5923 297.9521 269.4731)">
		<stop  offset="0" style="stop-color:#2A73FF"/>
		<stop  offset="0.1366" style="stop-color:#235BDC"/>
		<stop  offset="0.3297" style="stop-color:#1A3EB2"/>
		<stop  offset="0.5174" style="stop-color:#142890"/>
		<stop  offset="0.6958" style="stop-color:#0F1778"/>
		<stop  offset="0.8609" style="stop-color:#0C0D6A"/>
		<stop  offset="1" style="stop-color:#0B0A65"/>
	</linearGradient>
	<polygon class="st66" points="484.9,97.6 445.7,119.6 446.2,74.7 485.4,52.6 	"/>
	
		<linearGradient id="SVGID_55_" gradientUnits="userSpaceOnUse" x1="240.3136" y1="9.0218" x2="285.7266" y2="9.0218" gradientTransform="matrix(0.5923 -0.8057 -0.8057 -0.5923 297.9521 269.4731)">
		<stop  offset="0" style="stop-color:#2A73FF"/>
		<stop  offset="0.1366" style="stop-color:#235BDC"/>
		<stop  offset="0.3297" style="stop-color:#1A3EB2"/>
		<stop  offset="0.5174" style="stop-color:#142890"/>
		<stop  offset="0.6958" style="stop-color:#0F1778"/>
		<stop  offset="0.8609" style="stop-color:#0C0D6A"/>
		<stop  offset="1" style="stop-color:#0B0A65"/>
	</linearGradient>
	<polygon class="st67" points="446.2,74.7 407.6,51.8 446.7,29.7 485.4,52.6 	"/>
</g>
<g>
	
		<linearGradient id="SVGID_56_" gradientUnits="userSpaceOnUse" x1="245.9802" y1="-60.7082" x2="266.3145" y2="-60.7082" gradientTransform="matrix(0.6067 -0.795 -0.795 -0.6067 295.4934 269.7987)">
		<stop  offset="0" style="stop-color:#2A73FF"/>
		<stop  offset="0.1366" style="stop-color:#235BDC"/>
		<stop  offset="0.3297" style="stop-color:#1A3EB2"/>
		<stop  offset="0.5174" style="stop-color:#142890"/>
		<stop  offset="0.6958" style="stop-color:#0F1778"/>
		<stop  offset="0.8609" style="stop-color:#0C0D6A"/>
		<stop  offset="1" style="stop-color:#0B0A65"/>
	</linearGradient>
	<polygon class="st68" points="508.3,120 489.3,108.3 490,86 509,97.7 	"/>
	
		<linearGradient id="SVGID_57_" gradientUnits="userSpaceOnUse" x1="248.1654" y1="-76.3946" x2="286.6205" y2="-76.3946" gradientTransform="matrix(0.6067 -0.795 -0.795 -0.6067 295.4934 269.7987)">
		<stop  offset="0" style="stop-color:#2A73FF"/>
		<stop  offset="0.1366" style="stop-color:#235BDC"/>
		<stop  offset="0.3297" style="stop-color:#1A3EB2"/>
		<stop  offset="0.5174" style="stop-color:#142890"/>
		<stop  offset="0.6958" style="stop-color:#0F1778"/>
		<stop  offset="0.8609" style="stop-color:#0C0D6A"/>
		<stop  offset="1" style="stop-color:#0B0A65"/>
	</linearGradient>
	<polygon class="st69" points="527.9,109.4 508.3,120 509,97.7 528.6,87.1 	"/>
	
		<linearGradient id="SVGID_58_" gradientUnits="userSpaceOnUse" x1="264.1005" y1="-58.7895" x2="286.6444" y2="-58.7895" gradientTransform="matrix(0.6067 -0.795 -0.795 -0.6067 295.4934 269.7987)">
		<stop  offset="0" style="stop-color:#2A73FF"/>
		<stop  offset="0.1366" style="stop-color:#235BDC"/>
		<stop  offset="0.3297" style="stop-color:#1A3EB2"/>
		<stop  offset="0.5174" style="stop-color:#142890"/>
		<stop  offset="0.6958" style="stop-color:#0F1778"/>
		<stop  offset="0.8609" style="stop-color:#0C0D6A"/>
		<stop  offset="1" style="stop-color:#0B0A65"/>
	</linearGradient>
	<polygon class="st70" points="509,97.7 490,86 509.6,75.4 528.6,87.1 	"/>
</g>
<g>
	
		<linearGradient id="SVGID_59_" gradientUnits="userSpaceOnUse" x1="193.2746" y1="-64.2715" x2="213.601" y2="-64.2715" gradientTransform="matrix(0.6067 -0.795 -0.795 -0.6067 295.4934 269.7987)">
		<stop  offset="0" style="stop-color:#2A73FF"/>
		<stop  offset="0.1366" style="stop-color:#235BDC"/>
		<stop  offset="0.3297" style="stop-color:#1A3EB2"/>
		<stop  offset="0.5174" style="stop-color:#142890"/>
		<stop  offset="0.6958" style="stop-color:#0F1778"/>
		<stop  offset="0.8609" style="stop-color:#0C0D6A"/>
		<stop  offset="1" style="stop-color:#0B0A65"/>
	</linearGradient>
	<polygon class="st71" points="479.2,164.1 460.2,152.4 460.8,130.1 479.8,141.8 	"/>
	
		<linearGradient id="SVGID_60_" gradientUnits="userSpaceOnUse" x1="195.4862" y1="-79.961" x2="233.9334" y2="-79.961" gradientTransform="matrix(0.6067 -0.795 -0.795 -0.6067 295.4934 269.7987)">
		<stop  offset="0" style="stop-color:#2A73FF"/>
		<stop  offset="0.1366" style="stop-color:#235BDC"/>
		<stop  offset="0.3297" style="stop-color:#1A3EB2"/>
		<stop  offset="0.5174" style="stop-color:#142890"/>
		<stop  offset="0.6958" style="stop-color:#0F1778"/>
		<stop  offset="0.8609" style="stop-color:#0C0D6A"/>
		<stop  offset="1" style="stop-color:#0B0A65"/>
	</linearGradient>
	<polygon class="st72" points="498.8,153.5 479.2,164.1 479.8,141.8 499.5,131.2 	"/>
	
		<linearGradient id="SVGID_61_" gradientUnits="userSpaceOnUse" x1="211.4139" y1="-62.3559" x2="233.9579" y2="-62.3559" gradientTransform="matrix(0.6067 -0.795 -0.795 -0.6067 295.4934 269.7987)">
		<stop  offset="0" style="stop-color:#2A73FF"/>
		<stop  offset="0.1366" style="stop-color:#235BDC"/>
		<stop  offset="0.3297" style="stop-color:#1A3EB2"/>
		<stop  offset="0.5174" style="stop-color:#142890"/>
		<stop  offset="0.6958" style="stop-color:#0F1778"/>
		<stop  offset="0.8609" style="stop-color:#0C0D6A"/>
		<stop  offset="1" style="stop-color:#0B0A65"/>
	</linearGradient>
	<polygon class="st73" points="479.8,141.8 460.8,130.1 480.5,119.5 499.5,131.2 	"/>
</g>
<g>
	
		<linearGradient id="SVGID_62_" gradientUnits="userSpaceOnUse" x1="175.8942" y1="50.9186" x2="196.2346" y2="50.9186" gradientTransform="matrix(0.6067 -0.795 -0.795 -0.6067 295.4934 269.7987)">
		<stop  offset="0" style="stop-color:#2A73FF"/>
		<stop  offset="0.1366" style="stop-color:#235BDC"/>
		<stop  offset="0.3297" style="stop-color:#1A3EB2"/>
		<stop  offset="0.5174" style="stop-color:#142890"/>
		<stop  offset="0.6958" style="stop-color:#0F1778"/>
		<stop  offset="0.8609" style="stop-color:#0C0D6A"/>
		<stop  offset="1" style="stop-color:#0B0A65"/>
	</linearGradient>
	<polygon class="st74" points="377.1,108 358.1,96.3 358.7,74 377.7,85.7 	"/>
	
		<linearGradient id="SVGID_63_" gradientUnits="userSpaceOnUse" x1="178.0795" y1="35.2313" x2="216.5347" y2="35.2313" gradientTransform="matrix(0.6067 -0.795 -0.795 -0.6067 295.4934 269.7987)">
		<stop  offset="0" style="stop-color:#2A73FF"/>
		<stop  offset="0.1366" style="stop-color:#235BDC"/>
		<stop  offset="0.3297" style="stop-color:#1A3EB2"/>
		<stop  offset="0.5174" style="stop-color:#142890"/>
		<stop  offset="0.6958" style="stop-color:#0F1778"/>
		<stop  offset="0.8609" style="stop-color:#0C0D6A"/>
		<stop  offset="1" style="stop-color:#0B0A65"/>
	</linearGradient>
	<polygon class="st75" points="396.7,97.4 377.1,108 377.7,85.7 397.3,75.1 	"/>
	
		<linearGradient id="SVGID_64_" gradientUnits="userSpaceOnUse" x1="194.0145" y1="52.8373" x2="216.5603" y2="52.8373" gradientTransform="matrix(0.6067 -0.795 -0.795 -0.6067 295.4934 269.7987)">
		<stop  offset="0" style="stop-color:#2A73FF"/>
		<stop  offset="0.1366" style="stop-color:#235BDC"/>
		<stop  offset="0.3297" style="stop-color:#1A3EB2"/>
		<stop  offset="0.5174" style="stop-color:#142890"/>
		<stop  offset="0.6958" style="stop-color:#0F1778"/>
		<stop  offset="0.8609" style="stop-color:#0C0D6A"/>
		<stop  offset="1" style="stop-color:#0B0A65"/>
	</linearGradient>
	<polygon class="st76" points="377.7,85.7 358.7,74 378.3,63.4 397.3,75.1 	"/>
</g>
<g>
	
		<linearGradient id="SVGID_65_" gradientUnits="userSpaceOnUse" x1="90.7007" y1="-0.5246" x2="143.4933" y2="-0.5246" gradientTransform="matrix(0.5853 -0.8108 -0.8108 -0.5853 308.7361 269.7668)">
		<stop  offset="0" style="stop-color:#2A73FF"/>
		<stop  offset="0.1366" style="stop-color:#235BDC"/>
		<stop  offset="0.3297" style="stop-color:#1A3EB2"/>
		<stop  offset="0.5174" style="stop-color:#142890"/>
		<stop  offset="0.6958" style="stop-color:#0F1778"/>
		<stop  offset="0.8609" style="stop-color:#0C0D6A"/>
		<stop  offset="1" style="stop-color:#0B0A65"/>
	</linearGradient>
	<polygon class="st77" points="402.7,218.6 352.6,189.6 352.7,131.6 402.8,160.7 	"/>
	
		<linearGradient id="SVGID_66_" gradientUnits="userSpaceOnUse" x1="96.4463" y1="-41.2657" x2="196.2778" y2="-41.2657" gradientTransform="matrix(0.5853 -0.8108 -0.8108 -0.5853 308.7361 269.7668)">
		<stop  offset="0" style="stop-color:#2A73FF"/>
		<stop  offset="0.1366" style="stop-color:#235BDC"/>
		<stop  offset="0.3297" style="stop-color:#1A3EB2"/>
		<stop  offset="0.5174" style="stop-color:#142890"/>
		<stop  offset="0.6958" style="stop-color:#0F1778"/>
		<stop  offset="0.8609" style="stop-color:#0C0D6A"/>
		<stop  offset="1" style="stop-color:#0B0A65"/>
	</linearGradient>
	<polygon class="st78" points="452.9,189.8 402.7,218.6 402.8,160.7 453,131.9 	"/>
	
		<linearGradient id="SVGID_67_" gradientUnits="userSpaceOnUse" x1="137.7535" y1="4.4528" x2="196.2778" y2="4.4528" gradientTransform="matrix(0.5853 -0.8108 -0.8108 -0.5853 308.7361 269.7668)">
		<stop  offset="0" style="stop-color:#2A73FF"/>
		<stop  offset="0.1366" style="stop-color:#235BDC"/>
		<stop  offset="0.3297" style="stop-color:#1A3EB2"/>
		<stop  offset="0.5174" style="stop-color:#142890"/>
		<stop  offset="0.6958" style="stop-color:#0F1778"/>
		<stop  offset="0.8609" style="stop-color:#0C0D6A"/>
		<stop  offset="1" style="stop-color:#0B0A65"/>
	</linearGradient>
	<polygon class="st79" points="402.8,160.7 352.7,131.6 403,102.8 453,131.9 	"/>
</g>
<image style="overflow:visible;opacity:0.75;enable-background:new    ;" width="1429" height="538" xlink:href="9DE182F1.png"  transform="matrix(0.2391 0 0 0.2391 136.1075 505.5596)">
</image>
<g>
	<path class="st9" d="M96.4,300.3l36.5,20.8l36.4,21l36.4,21c12,7.3,26.2,10.7,40.1,9.7c7-0.5,13.9-2.1,20.4-4.6
		c1.6-0.6,3.2-1.4,4.8-2.1c1.5-0.8,3.1-1.6,4.6-2.5l9.1-5.3l36.4-21l36.4-21l36.5-20.9l-36.3,21.3l-36.4,21l-36.4,21l-9.1,5.3
		c-1.5,0.9-3.1,1.7-4.6,2.5c-1.6,0.7-3.2,1.5-4.8,2.1c-6.5,2.6-13.5,4.2-20.5,4.7c-14,1-28.3-2.5-40.4-9.8l-36.4-21l-36.4-21
		L96.4,300.3z"/>
</g>
<radialGradient id="SVGID_68_" cx="236.685" cy="221.0592" r="30.5531" gradientTransform="matrix(1 0 0 -1 0 410.7084)" gradientUnits="userSpaceOnUse">
	<stop  offset="0" style="stop-color:#2A73FF"/>
	<stop  offset="0.1366" style="stop-color:#235BDC"/>
	<stop  offset="0.3297" style="stop-color:#1A3EB2"/>
	<stop  offset="0.5174" style="stop-color:#142890"/>
	<stop  offset="0.6958" style="stop-color:#0F1778"/>
	<stop  offset="0.8609" style="stop-color:#0C0D6A"/>
	<stop  offset="1" style="stop-color:#0B0A65"/>
</radialGradient>
<path class="st80" d="M236.7,181.9c-18.7,0-33.9-8.5-33.9-19h0l0,34.6c0,10.5,15.2,19,33.9,19s33.9-8.5,33.9-19v-34.6
	C270.6,173.4,255.4,181.9,236.7,181.9z"/>
<path class="st81" d="M237.5,216.8c-8,0-15.3-1.5-21.1-4.1c1,6,10.1,10.7,21.1,10.7s20.1-4.7,21.1-10.7
	C252.8,215.2,245.4,216.8,237.5,216.8z"/>
<linearGradient id="SVGID_69_" gradientUnits="userSpaceOnUse" x1="0" y1="156.4342" x2="50.85" y2="156.4342">
	<stop  offset="0" style="stop-color:#2A73FF"/>
	<stop  offset="0.1366" style="stop-color:#235BDC"/>
	<stop  offset="0.3297" style="stop-color:#1A3EB2"/>
	<stop  offset="0.5174" style="stop-color:#142890"/>
	<stop  offset="0.6958" style="stop-color:#0F1778"/>
	<stop  offset="0.8609" style="stop-color:#0C0D6A"/>
	<stop  offset="1" style="stop-color:#0B0A65"/>
</linearGradient>
<polygon class="st82" points="0,87.9 50.8,117.3 50.8,224.9 0,197.9 "/>
</svg>
